# Blender 4.5.0
# www.blender.org
mtllib chair.mtl
o Cube
v 0.205000 0.400000 -0.175000
v 0.205000 0.450000 0.175000
v -0.205000 0.400000 -0.175000
v -0.205000 0.450000 0.175000
v 0.205000 0.400000 -0.225000
v -0.205000 0.400000 -0.225000
v 0.205000 0.450000 -0.225000
v -0.205000 0.450000 -0.225000
v -0.205000 0.900000 -0.255000
v 0.205000 0.900000 -0.255000
v -0.205000 0.400000 0.225000
v 0.205000 0.400000 0.225000
v 0.225000 0.400000 -0.175000
v 0.225000 0.450000 0.175000
v 0.225000 0.450000 -0.225000
v 0.225000 0.400000 -0.225000
v 0.225000 0.900000 -0.255000
v 0.225000 0.400000 0.225000
v -0.225000 0.400000 -0.175000
v -0.225000 0.450000 0.175000
v -0.225000 0.450000 -0.225000
v -0.225000 0.400000 -0.225000
v -0.225000 0.900000 -0.255000
v -0.225000 0.400000 0.225000
v 0.205000 0.400000 0.135000
v 0.205000 0.360000 0.175000
v 0.205000 0.394641 0.155000
v 0.205000 0.380000 0.169641
v -0.205000 0.360000 0.175000
v -0.205000 0.400000 0.135000
v -0.205000 0.380000 0.169641
v -0.205000 0.394641 0.155000
v -0.205000 0.450000 0.185000
v -0.205000 0.410000 0.225000
v -0.205000 0.444641 0.205000
v -0.205000 0.430000 0.219641
v 0.205000 0.410000 0.225000
v 0.205000 0.450000 0.185000
v 0.205000 0.430000 0.219641
v 0.205000 0.444641 0.205000
v 0.225000 0.360000 0.175000
v 0.225000 0.400000 0.135000
v 0.225000 0.440000 0.175000
v 0.225000 0.400000 0.215000
v 0.225000 0.380000 0.169641
v 0.225000 0.394641 0.155000
v 0.225000 0.450000 0.185000
v 0.225000 0.410000 0.225000
v 0.225000 0.444641 0.205000
v 0.225000 0.430000 0.219641
v -0.225000 0.400000 0.135000
v -0.225000 0.360000 0.175000
v -0.225000 0.400000 0.215000
v -0.225000 0.440000 0.175000
v -0.225000 0.394641 0.155000
v -0.225000 0.380000 0.169641
v -0.225000 0.410000 0.225000
v -0.225000 0.450000 0.185000
v -0.225000 0.430000 0.219641
v -0.225000 0.444641 0.205000
v 0.205000 0.450000 -0.135000
v 0.205000 0.490000 -0.175000
v 0.205000 0.455359 -0.155000
v 0.205000 0.470000 -0.169641
v -0.205000 0.450000 -0.135000
v -0.205000 0.490000 -0.175000
v -0.205000 0.455359 -0.155000
v -0.205000 0.470000 -0.169641
v 0.225000 0.490000 -0.175000
v 0.225000 0.450000 -0.135000
v 0.225000 0.410000 -0.175000
v 0.225000 0.450000 -0.215000
v 0.225000 0.470000 -0.169641
v 0.225000 0.455359 -0.155000
v -0.225000 0.450000 -0.135000
v -0.225000 0.490000 -0.175000
v -0.225000 0.450000 -0.215000
v -0.225000 0.410000 -0.175000
v -0.225000 0.455359 -0.155000
v -0.225000 0.470000 -0.169641
v -0.205000 0.890027 -0.234270
v -0.205000 0.900000 -0.245000
v 0.205000 0.900000 -0.245000
v 0.205000 0.890027 -0.234270
v 0.225000 0.900000 -0.245000
v 0.225000 0.890027 -0.234270
v -0.225000 0.890027 -0.234270
v -0.225000 0.900000 -0.245000
v 0.205000 0.009923 -0.223760
v 0.205000 0.000000 -0.235000
v -0.205000 0.000000 -0.235000
v -0.205000 0.009923 -0.223760
v 0.205000 0.000000 -0.265000
v 0.205000 0.009923 -0.273760
v -0.205000 0.009923 -0.273760
v -0.205000 0.000000 -0.265000
v -0.205000 0.000000 0.238604
v -0.205000 0.009959 0.223617
v 0.205000 0.000000 0.238604
v 0.205000 0.009959 0.223617
v -0.205000 0.009967 0.273754
v -0.205000 0.000000 0.261396
v 0.205000 0.000000 0.261396
v 0.205000 0.009967 0.273754
v 0.225000 0.000000 0.189117
v 0.225000 0.009973 0.175000
v 0.225000 0.009978 0.225000
v 0.225000 0.000000 0.210883
v -0.225000 0.009973 0.175000
v -0.225000 0.000000 0.189117
v -0.225000 0.000000 0.210883
v -0.225000 0.009978 0.225000
vn -0.0000 -0.0665 -0.9978
vn -0.0000 -0.0000 -1.0000
vn -0.0000 -1.0000 -0.0000
vn 1.0000 -0.0000 -0.0000
vn -1.0000 -0.0000 -0.0000
vn -0.0000 -0.9659 -0.2588
vn -0.0000 -0.7071 -0.7071
vn -0.0000 -0.2588 -0.9659
vn -0.0000 0.9659 0.2588
vn -0.0000 0.7071 0.7071
vn -0.0000 0.2588 0.9659
vn -0.0000 -0.0000 1.0000
vn -0.0000 1.0000 -0.0000
vn -0.0000 0.7325 0.6808
vn -0.0000 0.1466 0.9892
vn -0.8109 -0.4829 -0.3307
vn -0.0000 -0.7497 0.6618
vn -0.0000 -0.6618 -0.7497
vn -0.0000 -0.8329 -0.5534
vn -0.0000 -0.7784 0.6278
vn 0.8309 -0.4444 0.3348
vn 0.8109 -0.4829 -0.3307
vn -0.8309 -0.4444 0.3348
vn -0.0000 -0.1240 0.9923
vn -0.0000 0.1240 -0.9923
vn -0.0000 -0.1376 -0.9905
vn 0.7715 -0.0441 -0.6347
vn -0.7715 -0.0441 -0.6347
vn -0.0000 0.1240 0.9923
vn -0.7725 0.0396 0.6338
vn 0.7725 0.0396 0.6338
vt 0.625000 0.250000
vt 0.375000 0.250000
vt 0.625000 0.500000
vt 0.375000 0.500000
vt 0.375000 0.750000
vt 0.375000 0.750000
vt 0.375000 0.746739
vt 0.375000 0.724492
vt 0.575000 0.750000
vt 0.375000 0.024469
vt 0.375000 0.000000
vt 0.375000 0.000000
vt 0.548077 0.000000
vt 0.125000 0.721429
vt 0.375000 0.721429
vt 0.375000 0.735714
vt 0.125000 0.735714
vt 0.375000 0.750000
vt 0.125000 0.750000
vt 0.125000 0.750000
vt 0.625000 0.750000
vt 0.875000 0.750000
vt 0.625000 0.750000
vt 0.625000 1.000000
vt 0.525000 1.000000
vt 0.525000 0.750000
vt 0.425000 1.000000
vt 0.425000 0.750000
vt 0.125000 0.721429
vt 0.425000 0.750000
vt 0.525000 0.750000
vt 0.608633 0.750000
vt 0.625000 0.750000
vt 0.425000 1.000000
vt 0.525000 1.000000
vt 0.875000 0.750000
vt 0.125000 0.500000
vt 0.375000 1.000000
vt 0.625000 0.750000
vt 0.625000 0.000000
vt 0.425000 0.000000
vt 0.525000 0.000000
vt 0.598205 0.000000
vt 0.625000 0.503261
vt 0.625000 0.525411
vt 0.425000 0.500000
vt 0.625000 0.221429
vt 0.625000 0.235714
vt 0.625000 0.246172
vt 0.425000 0.250000
vt 0.875000 0.528571
vt 0.875000 0.514286
vt 0.875000 0.514286
vt 0.875000 0.500000
vt 0.875000 0.500000
vt 0.875000 0.500000
vt 0.625000 0.528572
vt 0.625000 0.514286
vt 0.625000 0.500000
vt 0.625000 0.500000
vt 0.375000 0.750000
vt 0.375000 0.500000
vt 0.125000 0.750000
vt 0.125000 0.750000
s 0
usemtl Material
f 9/1/1 8/1/1 21/1/1 23/1/1
f 8/1/2 6/2/2 22/2/2 21/1/2
f 6/2/2 8/1/2 7/3/2 5/4/2
f 7/3/1 10/3/1 17/3/1 15/3/1
f 7/3/1 8/1/1 9/1/1 10/3/1
f 5/4/2 7/3/2 15/3/2 16/4/2
f 1/4/3 5/4/3 16/4/3 13/4/3
f 6/2/3 3/2/3 19/2/3 22/2/3
f 41/5/4 45/6/4 46/7/4 42/8/4 43/9/4 44/6/4
f 51/10/5 55/11/5 56/11/5 52/12/5 53/11/5 54/13/5
f 30/14/6 25/15/6 27/16/6 32/17/6
f 32/17/7 27/16/7 28/18/7 31/19/7
f 31/19/8 28/18/8 26/5/8 29/20/8
f 38/21/9 33/22/9 35/22/9 40/23/9
f 40/23/10 35/24/10 36/25/10 39/26/10
f 39/26/11 36/25/11 34/27/11 37/28/11
f 29/20/8 52/20/8 56/20/8 31/19/8
f 31/19/7 56/20/7 55/17/7 32/17/7
f 32/17/6 55/17/6 51/29/6 30/14/6
f 25/15/6 42/8/6 46/7/6 27/16/6
f 27/16/7 46/7/7 45/6/7 28/18/7
f 28/18/8 45/6/8 41/5/8 26/5/8
f 37/28/11 48/30/11 50/31/11 39/26/11
f 39/26/10 50/31/10 49/32/10 40/23/10
f 40/23/9 49/32/9 47/33/9 38/21/9
f 57/34/11 34/27/11 36/25/11 59/35/11
f 59/35/10 36/25/10 35/24/10 60/24/10
f 60/36/9 35/22/9 33/22/9 58/36/9
f 3/37/3 1/4/3 25/15/3 30/14/3
f 25/15/3 1/4/3 13/4/3 42/8/3
f 3/37/3 30/14/3 51/29/3 19/37/3
f 11/38/12 34/27/12 57/34/12 24/38/12
f 12/6/12 37/28/12 34/27/12 11/38/12
f 2/39/13 4/36/13 33/22/13 38/21/13
f 33/22/13 4/36/13 20/36/13 58/36/13
f 37/28/12 12/6/12 18/6/12 48/30/12
f 2/39/13 38/21/13 47/33/13 14/39/13
f 44/6/4 43/9/4 14/39/4 47/33/4 49/32/4 50/31/4 48/30/4 18/6/4
f 20/40/5 54/13/5 53/11/5 24/11/5 57/41/5 59/42/5 60/43/5 58/40/5
f 69/3/4 73/3/4 74/44/4 70/45/4 71/46/4 72/3/4
f 75/47/5 79/48/5 80/49/5 76/1/5 77/1/5 78/50/5
f 75/51/9 65/51/9 67/52/9 79/53/9
f 79/53/10 67/52/10 68/54/10 80/55/10
f 80/55/11 68/54/11 66/55/11 76/56/11
f 65/51/9 61/57/9 63/58/9 67/52/9
f 67/52/10 63/58/10 64/3/10 68/54/10
f 68/54/11 64/3/11 62/59/11 66/55/11
f 61/57/9 70/45/9 74/44/9 63/58/9
f 63/58/10 74/44/10 73/3/10 64/3/10
f 64/3/11 73/3/11 69/3/11 62/59/11
f 61/57/13 2/39/13 14/39/13 70/45/13
f 61/57/13 65/51/13 4/36/13 2/39/13
f 4/36/13 65/51/13 75/51/13 20/36/13
f 13/4/4 71/46/4 70/45/4 14/39/4 43/9/4 42/8/4
f 72/3/4 71/46/4 13/4/4 16/4/4 15/3/4
f 19/2/5 78/50/5 77/1/5 21/1/5 22/2/5
f 51/10/5 54/13/5 20/40/5 75/47/5 78/50/5 19/2/5
f 84/3/14 86/3/14 85/60/14 83/3/14
f 82/55/14 88/54/14 87/56/14 81/54/14
f 81/54/14 84/3/14 83/3/14 82/55/14
f 66/55/15 81/54/15 87/56/15 76/56/15
f 82/55/13 83/3/13 10/3/13 9/54/13
f 82/55/13 9/54/13 23/54/13 88/54/13
f 66/55/15 62/59/15 84/3/15 81/54/15
f 84/3/15 62/59/15 69/3/15 86/3/15
f 10/3/13 83/3/13 85/60/13 17/3/13
f 69/3/4 72/3/4 15/3/4 17/3/4 85/60/4 86/3/4
f 21/1/5 77/1/5 76/1/5 87/1/5 88/1/5 23/1/5
f 105/5/16 99/6/16 100/6/16 106/61/16
f 89/4/17 92/37/17 91/37/17 90/62/17
f 93/4/18 96/37/18 95/37/18 94/4/18
f 98/20/19 100/6/19 99/6/19 97/20/19
f 102/20/20 103/6/20 104/18/20 101/63/20
f 107/18/21 104/18/21 103/6/21 108/18/21
f 97/20/22 110/64/22 109/20/22 98/20/22
f 101/63/23 112/20/23 111/20/23 102/20/23
f 1/4/24 3/37/24 92/37/24 89/4/24
f 90/62/3 91/37/3 96/37/3 93/4/3
f 5/4/4 1/4/4 89/4/4 90/62/4 93/4/4 94/4/4
f 3/2/5 6/2/5 95/2/5 96/2/5 91/2/5 92/2/5
f 6/2/25 5/4/25 94/4/25 95/2/25
f 29/20/26 26/5/26 100/6/26 98/20/26
f 97/20/3 99/6/3 103/6/3 102/20/3
f 97/20/3 102/20/3 111/20/3 110/64/3
f 29/20/27 98/20/27 109/20/27 52/20/27
f 100/6/28 26/5/28 41/5/28 106/61/28
f 103/6/3 99/6/3 105/5/3 108/18/3
f 12/6/29 11/38/29 101/38/29 104/18/29
f 101/38/30 11/38/30 24/38/30 112/38/30
f 12/6/31 104/18/31 107/18/31 18/6/31
f 41/5/4 44/6/4 18/6/4 107/18/4 108/18/4 105/5/4 106/61/4
f 24/11/5 53/11/5 52/12/5 109/11/5 110/11/5 111/11/5 112/11/5
