{
  "accessors": [
    {
      "bufferView": 2,
      "componentType": 5126,
      "count": 17623,
      "max": [
        1.1109199523925781,
        5.704870223999023,
        0.5990200042724609
      ],
      "min": [
        -1.2576099634170532,
        -4.555079936981201,
        -0.5990200042724609
      ],
      "type": "VEC3"
    },
    {
      "bufferView": 2,
      "byteOffset": 211476,
      "componentType": 5126,
      "count": 17623,
      "max": [
        1.0,
        1.0,
        1.0
      ],
      "min": [
        -1.0,
        -1.0,
        -1.0
      ],
      "type": "VEC3"
    },
    {
      "bufferView": 1,
      "componentType": 5126,
      "count": 17623,
      "max": [
        0.9927499890327454,
        0.9923499822616577
      ],
      "min": [
        0.007249999791383743,
        0.0076500000432133675
      ],
      "type": "VEC2"
    },
    {
      "bufferView": 0,
      "componentType": 5125,
      "count": 95232,
      "type": "SCALAR"
    }
  ],
  "asset": {
    "extras": {
      "author": "afferu (https://sketchfab.com/afferu)",
      "license": "CC-BY-SA-4.0 (http://creativecommons.org/licenses/by-sa/4.0/)",
      "source": "https://sketchfab.com/3d-models/csgo-t-knife-4fec04c045844a22b77b6e645efed628",
      "title": "CSGO T-knife"
    },
    "generator": "Sketchfab-12.67.0",
    "version": "2.0"
  },
  "bufferViews": [
    {
      "buffer": 0,
      "byteLength": 380928,
      "name": "floatBufferViews",
      "target": 34963
    },
    {
      "buffer": 0,
      "byteLength": 140984,
      "byteOffset": 380928,
      "byteStride": 8,
      "name": "floatBufferViews",
      "target": 34962
    },
    {
      "buffer": 0,
      "byteLength": 422952,
      "byteOffset": 521912,
      "byteStride": 12,
      "name": "floatBufferViews",
      "target": 34962
    }
  ],
  "buffers": [
    {
      "byteLength": 944864,
      "uri": "scene.bin"
    }
  ],
  "images": [
    {
      "uri": "textures/Knife_mat_baseColor.png"
    },
    {
      "uri": "textures/Knife_mat_metallicRoughness.png"
    }
  ],
  "materials": [
    {
      "doubleSided": true,
      "name": "Knife_mat",
      "pbrMetallicRoughness": {
        "baseColorTexture": {
          "index": 0
        },
        "metallicRoughnessTexture": {
          "index": 1
        },
        "roughnessFactor": 0.25171493902439024
      }
    }
  ],
  "meshes": [
    {
      "name": "T_knife_hp_0",
      "primitives": [
        {
          "attributes": {
            "NORMAL": 1,
            "POSITION": 0,
            "TEXCOORD_0": 2
          },
          "indices": 3,
          "material": 0,
          "mode": 4
        }
      ]
    }
  ],
  "nodes": [
    {
      "children": [
        1
      ],
      "matrix": [
        0.9999768733978271,
        0.00492612225934863,
        0.004694457165896893,
        0.0,
        -0.0048992205411195755,
        0.9999716281890869,
        -0.005724857561290042,
        0.0,
        -0.0047225248999893665,
        0.00570172583684303,
        0.9999725818634033,
        0.0,
        0.0030846334993839264,
        -0.6295868158340453,
        -0.6260129809379579,
        1.0
      ],
      "name": "Sketchfab_model"
    },
    {
      "children": [
        2
      ],
      "name": "Root"
    },
    {
      "children": [
        3
      ],
      "matrix": [
        1.0,
        0.0,
        0.0,
        0.0,
        0.0,
        1.0,
        0.0,
        0.0,
        0.0,
        0.0,
        1.0,
        0.0,
        0.0,
        0.055080000000000004,
        0.0,
        1.0
      ],
      "name": "T_knife_hp"
    },
    {
      "mesh": 0,
      "name": "T_knife_hp_0"
    }
  ],
  "samplers": [
    {
      "magFilter": 9729,
      "minFilter": 9987,
      "wrapS": 10497,
      "wrapT": 10497
    }
  ],
  "scene": 0,
  "scenes": [
    {
      "name": "Sketchfab_Scene",
      "nodes": [
        0
      ]
    }
  ],
  "textures": [
    {
      "sampler": 0,
      "source": 0
    },
    {
      "sampler": 0,
      "source": 1
    }
  ]
}
