# Blender 4.5.0
# www.blender.org
mtllib nextbot.mtl
o Text
v 2.796000 0.346000 0.100000
v 2.598000 0.222000 0.100000
v 2.598000 0.293000 0.100000
v 2.144000 0.293000 0.100000
v 2.144000 0.397000 0.100000
v 2.598000 0.397000 0.100000
v 2.598000 0.470000 0.100000
v 2.069000 0.449000 0.100000
v 2.069000 0.369000 0.100000
v 1.927000 0.369000 0.100000
v 1.927000 0.139000 0.100000
v 1.927763 0.126528 0.100000
v 1.929935 0.115560 0.100000
v 1.933344 0.106016 0.100000
v 1.937815 0.097815 0.100000
v 1.943175 0.090878 0.100000
v 1.949250 0.085125 0.100000
v 1.955867 0.080476 0.100000
v 1.962852 0.076852 0.100000
v 1.970031 0.074172 0.100000
v 1.977232 0.072356 0.100000
v 1.984279 0.071326 0.100000
v 1.991000 0.071000 0.100000
v 1.999022 0.071229 0.100000
v 2.007093 0.071917 0.100000
v 2.015219 0.073063 0.100000
v 2.023408 0.074667 0.100000
v 2.031666 0.076729 0.100000
v 2.040000 0.079250 0.100000
v 2.048418 0.082229 0.100000
v 2.056926 0.085667 0.100000
v 2.065531 0.089562 0.100000
v 2.074241 0.093917 0.100000
v 2.083061 0.098729 0.100000
v 2.092000 0.104000 0.100000
v 2.092000 0.021000 0.100000
v 2.083917 0.016839 0.100000
v 2.075250 0.012875 0.100000
v 2.066125 0.009141 0.100000
v 2.056667 0.005667 0.100000
v 2.047000 0.002484 0.100000
v 2.037250 -0.000375 0.100000
v 2.027542 -0.002880 0.100000
v 2.018000 -0.005000 0.100000
v 2.008750 -0.006703 0.100000
v 1.999917 -0.007958 0.100000
v 1.991625 -0.008734 0.100000
v 1.984000 -0.009000 0.100000
v 1.960750 -0.007773 0.100000
v 1.939505 -0.004181 0.100000
v 1.920266 0.001641 0.100000
v 1.903037 0.009556 0.100000
v 1.887822 0.019429 0.100000
v 1.874625 0.031125 0.100000
v 1.863449 0.044509 0.100000
v 1.854296 0.059444 0.100000
v 1.847172 0.075797 0.100000
v 1.842079 0.093431 0.100000
v 1.839020 0.112210 0.100000
v 1.838000 0.132000 0.100000
v 1.838000 0.369000 0.100000
v 1.760000 0.369000 0.100000
v 1.760000 0.379000 0.100000
v 1.927000 0.542000 0.100000
v 1.927000 0.449000 0.100000
v 1.760000 -0.000000 0.100000
v 1.646000 -0.000000 0.100000
v 1.505000 0.161000 0.100000
v 1.372000 -0.000000 0.100000
v 1.260000 -0.000000 0.100000
v 1.449000 0.228000 0.100000
v 1.260000 0.449000 0.100000
v 1.372000 0.449000 0.100000
v 1.505000 0.295000 0.100000
v 1.633000 0.449000 0.100000
v 1.747000 0.449000 0.100000
v 1.562000 0.228000 0.100000
v 1.205585 0.035395 0.100000
v 1.192268 0.027574 0.100000
v 1.178937 0.020531 0.100000
v 1.165481 0.014259 0.100000
v 1.151789 0.008751 0.100000
v 1.137750 0.004000 0.100000
v 1.123252 -0.000001 0.100000
v 1.108185 -0.003259 0.100000
v 1.092437 -0.005781 0.100000
v 1.075898 -0.007574 0.100000
v 1.058456 -0.008645 0.100000
v 1.040000 -0.009000 0.100000
v 1.006301 -0.006665 0.100000
v 0.975241 0.000093 0.100000
v 0.946875 0.010906 0.100000
v 0.921259 0.025407 0.100000
v 0.898449 0.043228 0.100000
v 0.878500 0.064000 0.100000
v 0.861468 0.087355 0.100000
v 0.847407 0.112926 0.100000
v 0.836375 0.140344 0.100000
v 0.828426 0.169241 0.100000
v 0.823616 0.199249 0.100000
v 0.822000 0.230000 0.100000
v 0.823764 0.263056 0.100000
v 0.828944 0.294111 0.100000
v 0.837375 0.323000 0.100000
v 0.848889 0.349556 0.100000
v 0.863319 0.373611 0.100000
v 0.880500 0.395000 0.100000
v 0.900264 0.413556 0.100000
v 0.922444 0.429111 0.100000
v 0.946875 0.441500 0.100000
v 0.973389 0.450556 0.100000
v 1.001819 0.456111 0.100000
v 1.032000 0.458000 0.100000
v 1.060835 0.456310 0.100000
v 1.087764 0.451232 0.100000
v 1.112672 0.442750 0.100000
v 1.135445 0.430852 0.100000
v 1.155967 0.415523 0.100000
v 1.174125 0.396750 0.100000
v 1.189804 0.374519 0.100000
v 1.202889 0.348815 0.100000
v 1.213266 0.319625 0.100000
v 1.220819 0.286935 0.100000
v 1.225436 0.250731 0.100000
v 1.227000 0.211000 0.100000
v 0.911000 0.211000 0.100000
v 0.915270 0.189648 0.100000
v 0.921074 0.170097 0.100000
v 0.928406 0.152359 0.100000
v 0.937259 0.136444 0.100000
v 0.947626 0.122363 0.100000
v 0.959500 0.110125 0.100000
v 0.972874 0.099741 0.100000
v 0.987741 0.091222 0.100000
v 1.004094 0.084578 0.100000
v 1.021926 0.079819 0.100000
v 1.041230 0.076957 0.100000
v 1.062000 0.076000 0.100000
v 1.075440 0.076413 0.100000
v 1.088768 0.077639 0.100000
v 1.102000 0.079656 0.100000
v 1.115148 0.082444 0.100000
v 1.128227 0.085983 0.100000
v 1.141250 0.090250 0.100000
v 1.154231 0.095226 0.100000
v 1.167185 0.100889 0.100000
v 1.180125 0.107219 0.100000
v 1.193065 0.114194 0.100000
v 1.206019 0.121795 0.100000
v 1.219000 0.130000 0.100000
v 1.219000 0.044000 0.100000
v 1.137507 0.286469 0.100000
v 1.134555 0.301833 0.100000
v 1.130187 0.316031 0.100000
v 1.124444 0.329000 0.100000
v 1.117368 0.340677 0.100000
v 1.109000 0.351000 0.100000
v 1.099382 0.359906 0.100000
v 1.088556 0.367333 0.100000
v 1.076563 0.373219 0.100000
v 1.063444 0.377500 0.100000
v 1.049243 0.380115 0.100000
v 1.034000 0.381000 0.100000
v 1.017564 0.380172 0.100000
v 1.002259 0.377708 0.100000
v 0.988094 0.373641 0.100000
v 0.975074 0.368000 0.100000
v 0.963207 0.360818 0.100000
v 0.952500 0.352125 0.100000
v 0.942960 0.341953 0.100000
v 0.934593 0.330333 0.100000
v 0.927406 0.317297 0.100000
v 0.921407 0.302875 0.100000
v 0.916603 0.287099 0.100000
v 0.913000 0.270000 0.100000
v 1.139000 0.270000 0.100000
v 0.622000 -0.000000 0.100000
v 0.166000 0.525000 0.100000
v 0.166000 -0.000000 0.100000
v 0.074000 -0.000000 0.100000
v 0.074000 0.682000 0.100000
v 0.152000 0.682000 0.100000
v 0.614000 0.154000 0.100000
v 0.614000 0.682000 0.100000
v 0.706000 0.682000 0.100000
v 0.706000 -0.000000 0.100000
v 2.796000 0.346000 -0.100000
v 2.598000 0.222000 -0.100000
v 2.598000 0.293000 -0.100000
v 2.144000 0.293000 -0.100000
v 2.144000 0.397000 -0.100000
v 2.598000 0.397000 -0.100000
v 2.598000 0.470000 -0.100000
v 2.069000 0.449000 -0.100000
v 2.069000 0.369000 -0.100000
v 1.927000 0.369000 -0.100000
v 1.927000 0.139000 -0.100000
v 1.927763 0.126528 -0.100000
v 1.929935 0.115560 -0.100000
v 1.933344 0.106016 -0.100000
v 1.937815 0.097815 -0.100000
v 1.943175 0.090878 -0.100000
v 1.949250 0.085125 -0.100000
v 1.955867 0.080476 -0.100000
v 1.962852 0.076852 -0.100000
v 1.970031 0.074172 -0.100000
v 1.977232 0.072356 -0.100000
v 1.984279 0.071326 -0.100000
v 1.991000 0.071000 -0.100000
v 1.999022 0.071229 -0.100000
v 2.007093 0.071917 -0.100000
v 2.015219 0.073063 -0.100000
v 2.023408 0.074667 -0.100000
v 2.031666 0.076729 -0.100000
v 2.040000 0.079250 -0.100000
v 2.048418 0.082229 -0.100000
v 2.056926 0.085667 -0.100000
v 2.065531 0.089563 -0.100000
v 2.074241 0.093917 -0.100000
v 2.083061 0.098729 -0.100000
v 2.092000 0.104000 -0.100000
v 2.092000 0.021000 -0.100000
v 2.083917 0.016839 -0.100000
v 2.075250 0.012875 -0.100000
v 2.066125 0.009141 -0.100000
v 2.056667 0.005667 -0.100000
v 2.047000 0.002484 -0.100000
v 2.037250 -0.000375 -0.100000
v 2.027542 -0.002880 -0.100000
v 2.018000 -0.005000 -0.100000
v 2.008750 -0.006703 -0.100000
v 1.999917 -0.007958 -0.100000
v 1.991625 -0.008734 -0.100000
v 1.984000 -0.009000 -0.100000
v 1.960750 -0.007773 -0.100000
v 1.939505 -0.004181 -0.100000
v 1.920266 0.001641 -0.100000
v 1.903037 0.009556 -0.100000
v 1.887822 0.019429 -0.100000
v 1.874625 0.031125 -0.100000
v 1.863449 0.044509 -0.100000
v 1.854296 0.059444 -0.100000
v 1.847172 0.075797 -0.100000
v 1.842079 0.093431 -0.100000
v 1.839020 0.112210 -0.100000
v 1.838000 0.132000 -0.100000
v 1.838000 0.369000 -0.100000
v 1.760000 0.369000 -0.100000
v 1.760000 0.379000 -0.100000
v 1.927000 0.542000 -0.100000
v 1.927000 0.449000 -0.100000
v 1.760000 0.000000 -0.100000
v 1.646000 0.000000 -0.100000
v 1.505000 0.161000 -0.100000
v 1.372000 0.000000 -0.100000
v 1.260000 0.000000 -0.100000
v 1.449000 0.228000 -0.100000
v 1.260000 0.449000 -0.100000
v 1.372000 0.449000 -0.100000
v 1.505000 0.295000 -0.100000
v 1.633000 0.449000 -0.100000
v 1.747000 0.449000 -0.100000
v 1.562000 0.228000 -0.100000
v 1.205585 0.035395 -0.100000
v 1.192268 0.027574 -0.100000
v 1.178937 0.020531 -0.100000
v 1.165481 0.014259 -0.100000
v 1.151789 0.008751 -0.100000
v 1.137750 0.004000 -0.100000
v 1.123252 -0.000001 -0.100000
v 1.108185 -0.003259 -0.100000
v 1.092437 -0.005781 -0.100000
v 1.075898 -0.007574 -0.100000
v 1.058456 -0.008645 -0.100000
v 1.040000 -0.009000 -0.100000
v 1.006301 -0.006665 -0.100000
v 0.975241 0.000093 -0.100000
v 0.946875 0.010906 -0.100000
v 0.921259 0.025407 -0.100000
v 0.898449 0.043228 -0.100000
v 0.878500 0.064000 -0.100000
v 0.861468 0.087355 -0.100000
v 0.847407 0.112926 -0.100000
v 0.836375 0.140344 -0.100000
v 0.828426 0.169241 -0.100000
v 0.823616 0.199249 -0.100000
v 0.822000 0.230000 -0.100000
v 0.823764 0.263056 -0.100000
v 0.828944 0.294111 -0.100000
v 0.837375 0.323000 -0.100000
v 0.848889 0.349556 -0.100000
v 0.863319 0.373611 -0.100000
v 0.880500 0.395000 -0.100000
v 0.900264 0.413556 -0.100000
v 0.922444 0.429111 -0.100000
v 0.946875 0.441500 -0.100000
v 0.973389 0.450556 -0.100000
v 1.001819 0.456111 -0.100000
v 1.032000 0.458000 -0.100000
v 1.060835 0.456310 -0.100000
v 1.087764 0.451232 -0.100000
v 1.112672 0.442750 -0.100000
v 1.135445 0.430852 -0.100000
v 1.155967 0.415523 -0.100000
v 1.174125 0.396750 -0.100000
v 1.189804 0.374519 -0.100000
v 1.202889 0.348815 -0.100000
v 1.213266 0.319625 -0.100000
v 1.220819 0.286935 -0.100000
v 1.225436 0.250731 -0.100000
v 1.227000 0.211000 -0.100000
v 0.911000 0.211000 -0.100000
v 0.915270 0.189648 -0.100000
v 0.921074 0.170097 -0.100000
v 0.928406 0.152359 -0.100000
v 0.937259 0.136444 -0.100000
v 0.947626 0.122363 -0.100000
v 0.959500 0.110125 -0.100000
v 0.972874 0.099741 -0.100000
v 0.987741 0.091222 -0.100000
v 1.004094 0.084578 -0.100000
v 1.021926 0.079819 -0.100000
v 1.041230 0.076957 -0.100000
v 1.062000 0.076000 -0.100000
v 1.075440 0.076413 -0.100000
v 1.088768 0.077639 -0.100000
v 1.102000 0.079656 -0.100000
v 1.115148 0.082444 -0.100000
v 1.128227 0.085983 -0.100000
v 1.141250 0.090250 -0.100000
v 1.154231 0.095226 -0.100000
v 1.167185 0.100889 -0.100000
v 1.180125 0.107219 -0.100000
v 1.193065 0.114194 -0.100000
v 1.206019 0.121795 -0.100000
v 1.219000 0.130000 -0.100000
v 1.219000 0.044000 -0.100000
v 1.137507 0.286469 -0.100000
v 1.134555 0.301833 -0.100000
v 1.130187 0.316031 -0.100000
v 1.124444 0.329000 -0.100000
v 1.117368 0.340677 -0.100000
v 1.109000 0.351000 -0.100000
v 1.099382 0.359906 -0.100000
v 1.088556 0.367333 -0.100000
v 1.076563 0.373219 -0.100000
v 1.063444 0.377500 -0.100000
v 1.049243 0.380115 -0.100000
v 1.034000 0.381000 -0.100000
v 1.017564 0.380172 -0.100000
v 1.002259 0.377708 -0.100000
v 0.988094 0.373641 -0.100000
v 0.975074 0.368000 -0.100000
v 0.963207 0.360818 -0.100000
v 0.952500 0.352125 -0.100000
v 0.942960 0.341953 -0.100000
v 0.934593 0.330333 -0.100000
v 0.927406 0.317297 -0.100000
v 0.921407 0.302875 -0.100000
v 0.916603 0.287099 -0.100000
v 0.913000 0.270000 -0.100000
v 1.139000 0.270000 -0.100000
v 0.622000 0.000000 -0.100000
v 0.166000 0.525000 -0.100000
v 0.166000 0.000000 -0.100000
v 0.074000 0.000000 -0.100000
v 0.074000 0.682000 -0.100000
v 0.152000 0.682000 -0.100000
v 0.614000 0.154000 -0.100000
v 0.614000 0.682000 -0.100000
v 0.706000 0.682000 -0.100000
v 0.706000 0.000000 -0.100000
v 0.622000 0.000000 -0.100000
v 0.622000 -0.000000 0.100000
v 0.166000 0.525000 -0.100000
v 0.166000 0.525000 0.100000
v 0.166000 0.000000 -0.100000
v 0.166000 -0.000000 0.100000
v 0.074000 0.000000 -0.100000
v 0.074000 -0.000000 0.100000
v 0.074000 0.682000 -0.100000
v 0.074000 0.682000 0.100000
v 0.152000 0.682000 -0.100000
v 0.152000 0.682000 0.100000
v 0.614000 0.154000 -0.100000
v 0.614000 0.154000 0.100000
v 0.614000 0.682000 -0.100000
v 0.614000 0.682000 0.100000
v 0.706000 0.682000 -0.100000
v 0.706000 0.682000 0.100000
v 0.706000 0.000000 -0.100000
v 0.706000 -0.000000 0.100000
v 1.205585 0.035395 -0.100000
v 1.205585 0.035395 0.100000
v 1.192268 0.027574 -0.100000
v 1.192268 0.027574 0.100000
v 1.178937 0.020531 -0.100000
v 1.178937 0.020531 0.100000
v 1.165481 0.014259 -0.100000
v 1.165481 0.014259 0.100000
v 1.151789 0.008751 -0.100000
v 1.151789 0.008751 0.100000
v 1.137750 0.004000 -0.100000
v 1.137750 0.004000 0.100000
v 1.123252 -0.000001 -0.100000
v 1.123252 -0.000001 0.100000
v 1.108185 -0.003259 -0.100000
v 1.108185 -0.003259 0.100000
v 1.092437 -0.005781 -0.100000
v 1.092437 -0.005781 0.100000
v 1.075898 -0.007574 -0.100000
v 1.075898 -0.007574 0.100000
v 1.058456 -0.008645 -0.100000
v 1.058456 -0.008645 0.100000
v 1.040000 -0.009000 -0.100000
v 1.040000 -0.009000 0.100000
v 1.006301 -0.006665 -0.100000
v 1.006301 -0.006665 0.100000
v 0.975241 0.000093 -0.100000
v 0.975241 0.000093 0.100000
v 0.946875 0.010906 -0.100000
v 0.946875 0.010906 0.100000
v 0.921259 0.025407 -0.100000
v 0.921259 0.025407 0.100000
v 0.898449 0.043228 -0.100000
v 0.898449 0.043228 0.100000
v 0.878500 0.064000 -0.100000
v 0.878500 0.064000 0.100000
v 0.861468 0.087355 -0.100000
v 0.861468 0.087355 0.100000
v 0.847407 0.112926 -0.100000
v 0.847407 0.112926 0.100000
v 0.836375 0.140344 -0.100000
v 0.836375 0.140344 0.100000
v 0.828426 0.169241 -0.100000
v 0.828426 0.169241 0.100000
v 0.823616 0.199249 -0.100000
v 0.823616 0.199249 0.100000
v 0.822000 0.230000 -0.100000
v 0.822000 0.230000 0.100000
v 0.823764 0.263056 -0.100000
v 0.823764 0.263056 0.100000
v 0.828944 0.294111 -0.100000
v 0.828944 0.294111 0.100000
v 0.837375 0.323000 -0.100000
v 0.837375 0.323000 0.100000
v 0.848889 0.349556 -0.100000
v 0.848889 0.349556 0.100000
v 0.863319 0.373611 -0.100000
v 0.863319 0.373611 0.100000
v 0.880500 0.395000 -0.100000
v 0.880500 0.395000 0.100000
v 0.900264 0.413556 -0.100000
v 0.900264 0.413556 0.100000
v 0.922444 0.429111 -0.100000
v 0.922444 0.429111 0.100000
v 0.946875 0.441500 -0.100000
v 0.946875 0.441500 0.100000
v 0.973389 0.450556 -0.100000
v 0.973389 0.450556 0.100000
v 1.001819 0.456111 -0.100000
v 1.001819 0.456111 0.100000
v 1.032000 0.458000 -0.100000
v 1.032000 0.458000 0.100000
v 1.060835 0.456310 -0.100000
v 1.060835 0.456310 0.100000
v 1.087764 0.451232 -0.100000
v 1.087764 0.451232 0.100000
v 1.112672 0.442750 -0.100000
v 1.112672 0.442750 0.100000
v 1.135445 0.430852 -0.100000
v 1.135445 0.430852 0.100000
v 1.155967 0.415523 -0.100000
v 1.155967 0.415523 0.100000
v 1.174125 0.396750 -0.100000
v 1.174125 0.396750 0.100000
v 1.189804 0.374519 -0.100000
v 1.189804 0.374519 0.100000
v 1.202889 0.348815 -0.100000
v 1.202889 0.348815 0.100000
v 1.213266 0.319625 -0.100000
v 1.213266 0.319625 0.100000
v 1.220819 0.286935 -0.100000
v 1.220819 0.286935 0.100000
v 1.225436 0.250731 -0.100000
v 1.225436 0.250731 0.100000
v 1.227000 0.211000 -0.100000
v 1.227000 0.211000 0.100000
v 0.911000 0.211000 -0.100000
v 0.911000 0.211000 0.100000
v 0.915270 0.189648 -0.100000
v 0.915270 0.189648 0.100000
v 0.921074 0.170097 -0.100000
v 0.921074 0.170097 0.100000
v 0.928406 0.152359 -0.100000
v 0.928406 0.152359 0.100000
v 0.937259 0.136444 -0.100000
v 0.937259 0.136444 0.100000
v 0.947626 0.122363 -0.100000
v 0.947626 0.122363 0.100000
v 0.959500 0.110125 -0.100000
v 0.959500 0.110125 0.100000
v 0.972874 0.099741 -0.100000
v 0.972874 0.099741 0.100000
v 0.987741 0.091222 -0.100000
v 0.987741 0.091222 0.100000
v 1.004094 0.084578 -0.100000
v 1.004094 0.084578 0.100000
v 1.021926 0.079819 -0.100000
v 1.021926 0.079819 0.100000
v 1.041230 0.076957 -0.100000
v 1.041230 0.076957 0.100000
v 1.062000 0.076000 -0.100000
v 1.062000 0.076000 0.100000
v 1.075440 0.076413 -0.100000
v 1.075440 0.076413 0.100000
v 1.088768 0.077639 -0.100000
v 1.088768 0.077639 0.100000
v 1.102000 0.079656 -0.100000
v 1.102000 0.079656 0.100000
v 1.115148 0.082444 -0.100000
v 1.115148 0.082444 0.100000
v 1.128227 0.085983 -0.100000
v 1.128227 0.085983 0.100000
v 1.141250 0.090250 -0.100000
v 1.141250 0.090250 0.100000
v 1.154231 0.095226 -0.100000
v 1.154231 0.095226 0.100000
v 1.167185 0.100889 -0.100000
v 1.167185 0.100889 0.100000
v 1.180125 0.107219 -0.100000
v 1.180125 0.107219 0.100000
v 1.193065 0.114194 -0.100000
v 1.193065 0.114194 0.100000
v 1.206019 0.121795 -0.100000
v 1.206019 0.121795 0.100000
v 1.219000 0.130000 -0.100000
v 1.219000 0.130000 0.100000
v 1.219000 0.044000 -0.100000
v 1.219000 0.044000 0.100000
v 1.137507 0.286469 -0.100000
v 1.137507 0.286469 0.100000
v 1.134555 0.301833 -0.100000
v 1.134555 0.301833 0.100000
v 1.130187 0.316031 -0.100000
v 1.130187 0.316031 0.100000
v 1.124444 0.329000 -0.100000
v 1.124444 0.329000 0.100000
v 1.117368 0.340677 -0.100000
v 1.117368 0.340677 0.100000
v 1.109000 0.351000 -0.100000
v 1.109000 0.351000 0.100000
v 1.099382 0.359906 -0.100000
v 1.099382 0.359906 0.100000
v 1.088556 0.367333 -0.100000
v 1.088556 0.367333 0.100000
v 1.076563 0.373219 -0.100000
v 1.076563 0.373219 0.100000
v 1.063444 0.377500 -0.100000
v 1.063444 0.377500 0.100000
v 1.049243 0.380115 -0.100000
v 1.049243 0.380115 0.100000
v 1.034000 0.381000 -0.100000
v 1.034000 0.381000 0.100000
v 1.017564 0.380172 -0.100000
v 1.017564 0.380172 0.100000
v 1.002259 0.377708 -0.100000
v 1.002259 0.377708 0.100000
v 0.988094 0.373641 -0.100000
v 0.988094 0.373641 0.100000
v 0.975074 0.368000 -0.100000
v 0.975074 0.368000 0.100000
v 0.963207 0.360818 -0.100000
v 0.963207 0.360818 0.100000
v 0.952500 0.352125 -0.100000
v 0.952500 0.352125 0.100000
v 0.942960 0.341953 -0.100000
v 0.942960 0.341953 0.100000
v 0.934593 0.330333 -0.100000
v 0.934593 0.330333 0.100000
v 0.927406 0.317297 -0.100000
v 0.927406 0.317297 0.100000
v 0.921407 0.302875 -0.100000
v 0.921407 0.302875 0.100000
v 0.916603 0.287099 -0.100000
v 0.916603 0.287099 0.100000
v 0.913000 0.270000 -0.100000
v 0.913000 0.270000 0.100000
v 1.139000 0.270000 -0.100000
v 1.139000 0.270000 0.100000
v 1.760000 0.000000 -0.100000
v 1.760000 -0.000000 0.100000
v 1.646000 0.000000 -0.100000
v 1.646000 -0.000000 0.100000
v 1.505000 0.161000 -0.100000
v 1.505000 0.161000 0.100000
v 1.372000 0.000000 -0.100000
v 1.372000 -0.000000 0.100000
v 1.260000 0.000000 -0.100000
v 1.260000 -0.000000 0.100000
v 1.449000 0.228000 -0.100000
v 1.449000 0.228000 0.100000
v 1.260000 0.449000 -0.100000
v 1.260000 0.449000 0.100000
v 1.372000 0.449000 -0.100000
v 1.372000 0.449000 0.100000
v 1.505000 0.295000 -0.100000
v 1.505000 0.295000 0.100000
v 1.633000 0.449000 -0.100000
v 1.633000 0.449000 0.100000
v 1.747000 0.449000 -0.100000
v 1.747000 0.449000 0.100000
v 1.562000 0.228000 -0.100000
v 1.562000 0.228000 0.100000
v 2.069000 0.449000 -0.100000
v 2.069000 0.449000 0.100000
v 2.069000 0.369000 -0.100000
v 2.069000 0.369000 0.100000
v 1.927000 0.369000 -0.100000
v 1.927000 0.369000 0.100000
v 1.927000 0.139000 -0.100000
v 1.927000 0.139000 0.100000
v 1.927763 0.126528 -0.100000
v 1.927763 0.126528 0.100000
v 1.929935 0.115560 -0.100000
v 1.929935 0.115560 0.100000
v 1.933344 0.106016 -0.100000
v 1.933344 0.106016 0.100000
v 1.937815 0.097815 -0.100000
v 1.937815 0.097815 0.100000
v 1.943175 0.090878 -0.100000
v 1.943175 0.090878 0.100000
v 1.949250 0.085125 -0.100000
v 1.949250 0.085125 0.100000
v 1.955867 0.080476 -0.100000
v 1.955867 0.080476 0.100000
v 1.962852 0.076852 -0.100000
v 1.962852 0.076852 0.100000
v 1.970031 0.074172 -0.100000
v 1.970031 0.074172 0.100000
v 1.977232 0.072356 -0.100000
v 1.977232 0.072356 0.100000
v 1.984279 0.071326 -0.100000
v 1.984279 0.071326 0.100000
v 1.991000 0.071000 -0.100000
v 1.991000 0.071000 0.100000
v 1.999022 0.071229 -0.100000
v 1.999022 0.071229 0.100000
v 2.007093 0.071917 -0.100000
v 2.007093 0.071917 0.100000
v 2.015219 0.073063 -0.100000
v 2.015219 0.073063 0.100000
v 2.023408 0.074667 -0.100000
v 2.023408 0.074667 0.100000
v 2.031666 0.076729 -0.100000
v 2.031666 0.076729 0.100000
v 2.040000 0.079250 -0.100000
v 2.040000 0.079250 0.100000
v 2.048418 0.082229 -0.100000
v 2.048418 0.082229 0.100000
v 2.056926 0.085667 -0.100000
v 2.056926 0.085667 0.100000
v 2.065531 0.089563 -0.100000
v 2.065531 0.089562 0.100000
v 2.074241 0.093917 -0.100000
v 2.074241 0.093917 0.100000
v 2.083061 0.098729 -0.100000
v 2.083061 0.098729 0.100000
v 2.092000 0.104000 -0.100000
v 2.092000 0.104000 0.100000
v 2.092000 0.021000 -0.100000
v 2.092000 0.021000 0.100000
v 2.083917 0.016839 -0.100000
v 2.083917 0.016839 0.100000
v 2.075250 0.012875 -0.100000
v 2.075250 0.012875 0.100000
v 2.066125 0.009141 -0.100000
v 2.066125 0.009141 0.100000
v 2.056667 0.005667 -0.100000
v 2.056667 0.005667 0.100000
v 2.047000 0.002484 -0.100000
v 2.047000 0.002484 0.100000
v 2.037250 -0.000375 -0.100000
v 2.037250 -0.000375 0.100000
v 2.027542 -0.002880 -0.100000
v 2.027542 -0.002880 0.100000
v 2.018000 -0.005000 -0.100000
v 2.018000 -0.005000 0.100000
v 2.008750 -0.006703 -0.100000
v 2.008750 -0.006703 0.100000
v 1.999917 -0.007958 -0.100000
v 1.999917 -0.007958 0.100000
v 1.991625 -0.008734 -0.100000
v 1.991625 -0.008734 0.100000
v 1.984000 -0.009000 -0.100000
v 1.984000 -0.009000 0.100000
v 1.960750 -0.007773 -0.100000
v 1.960750 -0.007773 0.100000
v 1.939505 -0.004181 -0.100000
v 1.939505 -0.004181 0.100000
v 1.920266 0.001641 -0.100000
v 1.920266 0.001641 0.100000
v 1.903037 0.009556 -0.100000
v 1.903037 0.009556 0.100000
v 1.887822 0.019429 -0.100000
v 1.887822 0.019429 0.100000
v 1.874625 0.031125 -0.100000
v 1.874625 0.031125 0.100000
v 1.863449 0.044509 -0.100000
v 1.863449 0.044509 0.100000
v 1.854296 0.059444 -0.100000
v 1.854296 0.059444 0.100000
v 1.847172 0.075797 -0.100000
v 1.847172 0.075797 0.100000
v 1.842079 0.093431 -0.100000
v 1.842079 0.093431 0.100000
v 1.839020 0.112210 -0.100000
v 1.839020 0.112210 0.100000
v 1.838000 0.132000 -0.100000
v 1.838000 0.132000 0.100000
v 1.838000 0.369000 -0.100000
v 1.838000 0.369000 0.100000
v 1.760000 0.369000 -0.100000
v 1.760000 0.369000 0.100000
v 1.760000 0.379000 -0.100000
v 1.760000 0.379000 0.100000
v 1.927000 0.542000 -0.100000
v 1.927000 0.542000 0.100000
v 1.927000 0.449000 -0.100000
v 1.927000 0.449000 0.100000
v 2.796000 0.346000 -0.100000
v 2.796000 0.346000 0.100000
v 2.598000 0.222000 -0.100000
v 2.598000 0.222000 0.100000
v 2.598000 0.293000 -0.100000
v 2.598000 0.293000 0.100000
v 2.144000 0.293000 -0.100000
v 2.144000 0.293000 0.100000
v 2.144000 0.397000 -0.100000
v 2.144000 0.397000 0.100000
v 2.598000 0.397000 -0.100000
v 2.598000 0.397000 0.100000
v 2.598000 0.470000 -0.100000
v 2.598000 0.470000 0.100000
vn -0.0000 -0.0000 1.0000
vn -0.0000 -0.0000 -1.0000
vn -0.4149 -0.9099 -0.0000
vn 0.3500 -0.9367 -0.0000
vn 0.7071 -0.7071 -0.0000
vn -0.7071 -0.7071 -0.0000
vn -0.7071 0.7071 -0.0000
vn 0.4132 0.9106 -0.0000
vn -0.3517 0.9361 -0.0000
vn 0.7071 0.7071 -0.0000
vn 0.5233 -0.8522 -0.0000
vn 0.4869 -0.8735 -0.0000
vn 0.4449 -0.8956 -0.0000
vn 0.3980 -0.9174 -0.0000
vn 0.3470 -0.9379 -0.0000
vn 0.2934 -0.9560 -0.0000
vn 0.2388 -0.9711 -0.0000
vn 0.1848 -0.9828 -0.0000
vn 0.1330 -0.9911 -0.0000
vn 0.0845 -0.9964 -0.0000
vn 0.0403 -0.9992 -0.0000
vn -0.0250 -0.9997 -0.0000
vn -0.1412 -0.9900 -0.0000
vn -0.2852 -0.9585 -0.0000
vn -0.4256 -0.9049 -0.0000
vn -0.5557 -0.8314 -0.0000
vn -0.6701 -0.7422 -0.0000
vn -0.7664 -0.6424 -0.0000
vn -0.8438 -0.5366 -0.0000
vn -0.9036 -0.4283 -0.0000
vn -0.9475 -0.3198 -0.0000
vn -0.9773 -0.2121 -0.0000
vn -0.9944 -0.1055 -0.0000
vn -1.0000 0.0004 -0.0000
vn -0.9940 0.1091 -0.0000
vn -0.9749 0.2227 -0.0000
vn -0.9406 0.3396 -0.0000
vn -0.8894 0.4571 -0.0000
vn -0.8205 0.5717 -0.0000
vn -0.7339 0.6793 -0.0000
vn -0.6309 0.7758 -0.0000
vn -0.5145 0.8575 -0.0000
vn -0.3887 0.9214 -0.0000
vn -0.2581 0.9661 -0.0000
vn -0.1274 0.9919 -0.0000
vn -0.0020 1.0000 -0.0000
vn 0.1222 0.9925 -0.0000
vn 0.2545 0.9671 -0.0000
vn 0.3939 0.9192 -0.0000
vn 0.5325 0.8465 -0.0000
vn 0.6607 0.7506 -0.0000
vn 0.7703 0.6377 -0.0000
vn 0.8564 0.5163 -0.0000
vn 0.9186 0.3951 -0.0000
vn 0.9599 0.2805 -0.0000
vn 0.9844 0.1760 -0.0000
vn 0.9966 0.0830 -0.0000
vn 0.7209 -0.6931 -0.0000
vn 0.7733 -0.6340 -0.0000
vn 0.9706 0.2406 -0.0000
vn 0.9427 0.3338 -0.0000
vn 0.9005 0.4348 -0.0000
vn 0.8413 0.5406 -0.0000
vn 0.7633 0.6461 -0.0000
vn 0.6671 0.7449 -0.0000
vn 0.5566 0.8308 -0.0000
vn 0.4378 0.8991 -0.0000
vn 0.3177 0.9482 -0.0000
vn 0.2026 0.9793 -0.0000
vn 0.0965 0.9953 -0.0000
vn 0.0076 1.0000 -0.0000
vn -0.0612 0.9981 -0.0000
vn -0.1212 0.9926 -0.0000
vn -0.1792 0.9838 -0.0000
vn -0.2344 0.9721 -0.0000
vn -0.2864 0.9581 -0.0000
vn -0.3347 0.9423 -0.0000
vn -0.3793 0.9253 -0.0000
vn -0.4201 0.9075 -0.0000
vn -0.4571 0.8894 -0.0000
vn -0.4904 0.8715 -0.0000
vn -0.5202 0.8540 -0.0000
vn 0.4826 0.8759 -0.0000
vn 0.8775 -0.4796 -0.0000
vn -0.9902 -0.1396 -0.0000
vn -0.9704 -0.2417 -0.0000
vn -0.9367 -0.3501 -0.0000
vn -0.8866 -0.4625 -0.0000
vn -0.8179 -0.5753 -0.0000
vn -0.7300 -0.6835 -0.0000
vn -0.6242 -0.7812 -0.0000
vn -0.5045 -0.8634 -0.0000
vn -0.3763 -0.9265 -0.0000
vn -0.2462 -0.9692 -0.0000
vn -0.1198 -0.9928 -0.0000
vn -0.0038 -1.0000 -0.0000
vn 0.1048 -0.9945 -0.0000
vn 0.2179 -0.9760 -0.0000
vn 0.3375 -0.9413 -0.0000
vn 0.4587 -0.8886 -0.0000
vn 0.5754 -0.8179 -0.0000
vn 0.6814 -0.7319 -0.0000
vn 0.7721 -0.6355 -0.0000
vn 0.8452 -0.5345 -0.0000
vn 0.9009 -0.4341 -0.0000
vn 0.9411 -0.3381 -0.0000
vn 0.9685 -0.2490 -0.0000
vn 0.7766 0.6300 -0.0000
vn -0.7383 0.6744 -0.0000
vn 0.9099 -0.4149 -0.0000
vn -0.4130 -0.9107 -0.0000
vn 0.0144 -0.9999 -0.0000
vn 0.4261 -0.9047 -0.0000
vn -0.9050 -0.4253 -0.0000
vn -1.0000 -0.0077 -0.0000
vn -0.9083 0.4184 -0.0000
vn 0.4162 0.9093 -0.0000
vn -0.0094 1.0000 -0.0000
vn -0.4247 0.9053 -0.0000
vn 0.9061 0.4231 -0.0000
vn 1.0000 0.0091 -0.0000
vn 0.9995 0.0305 -0.0000
vn 0.9918 0.1280 -0.0000
vn 0.9640 0.2660 -0.0000
vn 0.9127 0.4087 -0.0000
vn 0.8373 0.5468 -0.0000
vn 0.7417 0.6708 -0.0000
vn 0.6329 0.7742 -0.0000
vn 0.5189 0.8548 -0.0000
vn 0.4059 0.9139 -0.0000
vn 0.2975 0.9547 -0.0000
vn 0.1948 0.9808 -0.0000
vn 0.0967 0.9953 -0.0000
vn 0.0099 1.0000 -0.0000
vn -0.0567 0.9984 -0.0000
vn -0.1123 0.9937 -0.0000
vn -0.1660 0.9861 -0.0000
vn -0.2173 0.9761 -0.0000
vn -0.2660 0.9640 -0.0000
vn -0.3117 0.9502 -0.0000
vn -0.3542 0.9352 -0.0000
vn -0.3936 0.9193 -0.0000
vn -0.4299 0.9029 -0.0000
vn -0.4631 0.8863 -0.0000
vn -0.4935 0.8697 -0.0000
vn 0.4960 0.8683 -0.0000
vn 0.8537 -0.5207 -0.0000
vn 0.4369 -0.8995 -0.0000
vn 0.3974 -0.9176 -0.0000
vn 0.3618 -0.9322 -0.0000
vn 0.3288 -0.9444 -0.0000
vn 0.2971 -0.9548 -0.0000
vn 0.2657 -0.9641 -0.0000
vn 0.2334 -0.9724 -0.0000
vn 0.1990 -0.9800 -0.0000
vn 0.1609 -0.9870 -0.0000
vn 0.1170 -0.9931 -0.0000
vn 0.0640 -0.9979 -0.0000
vn -0.0090 -1.0000 -0.0000
vn -0.1099 -0.9939 -0.0000
vn -0.2286 -0.9735 -0.0000
vn -0.3544 -0.9351 -0.0000
vn -0.4822 -0.8761 -0.0000
vn -0.6055 -0.7958 -0.0000
vn -0.7174 -0.6966 -0.0000
vn -0.8123 -0.5833 -0.0000
vn -0.8868 -0.4621 -0.0000
vn -0.9407 -0.3392 -0.0000
vn -0.9756 -0.2195 -0.0000
vn -0.9943 -0.1063 -0.0000
vn -0.9997 -0.0258 -0.0000
vn -0.9215 0.3883 -0.0000
vn 0.3883 0.9215 -0.0000
vn 1.0000 -0.0000 -0.0000
vn -0.4844 -0.8749 -0.0000
vn -0.4844 0.8749 -0.0000
vt 0.833333 0.000000
vt 0.000000 0.000000
vt 1.000000 0.000000
vt 0.500000 0.000000
vt 0.666667 0.000000
vt 0.333333 0.000000
vt 0.166667 0.000000
vt 0.964912 0.000000
vt 0.982456 0.000000
vt 0.017544 0.000000
vt 0.947368 0.000000
vt 0.929825 0.000000
vt 0.912281 0.000000
vt 0.035088 0.000000
vt 0.052632 0.000000
vt 0.070175 0.000000
vt 0.894737 0.000000
vt 0.087719 0.000000
vt 0.105263 0.000000
vt 0.877193 0.000000
vt 0.122807 0.000000
vt 0.456140 0.000000
vt 0.491228 0.000000
vt 0.473684 0.000000
vt 0.438596 0.000000
vt 0.140351 0.000000
vt 0.421053 0.000000
vt 0.859649 0.000000
vt 0.157895 0.000000
vt 0.403509 0.000000
vt 0.385965 0.000000
vt 0.175439 0.000000
vt 0.368421 0.000000
vt 0.192982 0.000000
vt 0.350877 0.000000
vt 0.210526 0.000000
vt 0.842105 0.000000
vt 0.315789 0.000000
vt 0.228070 0.000000
vt 0.298246 0.000000
vt 0.245614 0.000000
vt 0.280702 0.000000
vt 0.263158 0.000000
vt 0.824561 0.000000
vt 0.807018 0.000000
vt 0.789474 0.000000
vt 0.508772 0.000000
vt 0.771930 0.000000
vt 0.526316 0.000000
vt 0.543860 0.000000
vt 0.754386 0.000000
vt 0.561404 0.000000
vt 0.578947 0.000000
vt 0.596491 0.000000
vt 0.736842 0.000000
vt 0.614035 0.000000
vt 0.631579 0.000000
vt 0.719298 0.000000
vt 0.649123 0.000000
vt 0.701754 0.000000
vt 0.684211 0.000000
vt 0.454545 0.000000
vt 0.636364 0.000000
vt 0.545455 0.000000
vt 0.727273 0.000000
vt 0.909091 0.000000
vt 0.818182 0.000000
vt 0.363636 0.000000
vt 0.181818 0.000000
vt 0.272727 0.000000
vt 0.090909 0.000000
vt 0.346939 0.000000
vt 0.367347 0.000000
vt 0.357143 0.000000
vt 0.377551 0.000000
vt 0.336735 0.000000
vt 0.387755 0.000000
vt 0.326531 0.000000
vt 0.397959 0.000000
vt 0.316327 0.000000
vt 0.408163 0.000000
vt 0.306122 0.000000
vt 0.418367 0.000000
vt 0.295918 0.000000
vt 0.428571 0.000000
vt 0.285714 0.000000
vt 0.867347 0.000000
vt 0.877551 0.000000
vt 0.857143 0.000000
vt 0.887755 0.000000
vt 0.846939 0.000000
vt 0.897959 0.000000
vt 0.836735 0.000000
vt 0.438776 0.000000
vt 0.908163 0.000000
vt 0.275510 0.000000
vt 0.826531 0.000000
vt 0.918367 0.000000
vt 0.816327 0.000000
vt 0.928571 0.000000
vt 0.806122 0.000000
vt 0.938776 0.000000
vt 0.795918 0.000000
vt 0.265306 0.000000
vt 0.448980 0.000000
vt 0.948980 0.000000
vt 0.785714 0.000000
vt 0.959184 0.000000
vt 0.775510 0.000000
vt 0.255102 0.000000
vt 0.459184 0.000000
vt 0.969388 0.000000
vt 0.765306 0.000000
vt 0.979592 0.000000
vt 0.755102 0.000000
vt 0.244898 0.000000
vt 0.989796 0.000000
vt 0.469388 0.000000
vt 0.234694 0.000000
vt 0.479592 0.000000
vt 0.224490 0.000000
vt 0.489796 0.000000
vt 0.214286 0.000000
vt 0.510204 0.000000
vt 0.520408 0.000000
vt 0.204082 0.000000
vt 0.530612 0.000000
vt 0.193878 0.000000
vt 0.540816 0.000000
vt 0.724490 0.000000
vt 0.744898 0.000000
vt 0.734694 0.000000
vt 0.551020 0.000000
vt 0.714286 0.000000
vt 0.704082 0.000000
vt 0.183673 0.000000
vt 0.561224 0.000000
vt 0.693878 0.000000
vt 0.683673 0.000000
vt 0.571429 0.000000
vt 0.673469 0.000000
vt 0.581633 0.000000
vt 0.663265 0.000000
vt 0.173469 0.000000
vt 0.653061 0.000000
vt 0.591837 0.000000
vt 0.642857 0.000000
vt 0.602041 0.000000
vt 0.632653 0.000000
vt 0.622449 0.000000
vt 0.612245 0.000000
vt 0.163265 0.000000
vt 0.153061 0.000000
vt 0.010204 0.000000
vt 0.020408 0.000000
vt 0.142857 0.000000
vt 0.030612 0.000000
vt 0.040816 0.000000
vt 0.132653 0.000000
vt 0.051020 0.000000
vt 0.061224 0.000000
vt 0.122449 0.000000
vt 0.071429 0.000000
vt 0.081633 0.000000
vt 0.091837 0.000000
vt 0.112245 0.000000
vt 0.102041 0.000000
vt 0.555556 0.000000
vt 0.444444 0.000000
vt 0.111111 0.000000
vt 0.888889 0.000000
vt 0.777778 0.000000
vt 0.222222 0.000000
vt 0.000000 1.000000
vt 0.100000 1.000000
vt 0.100000 0.000000
vt 0.200000 1.000000
vt 0.200000 0.000000
vt 0.300000 1.000000
vt 0.300000 0.000000
vt 0.400000 1.000000
vt 0.400000 0.000000
vt 0.500000 1.000000
vt 0.600000 1.000000
vt 0.600000 0.000000
vt 0.700000 1.000000
vt 0.700000 0.000000
vt 0.800000 1.000000
vt 0.800000 0.000000
vt 0.900000 1.000000
vt 0.900000 0.000000
vt 1.000000 1.000000
vt 0.013514 1.000000
vt 0.013514 0.000000
vt 0.027027 1.000000
vt 0.027027 0.000000
vt 0.040541 1.000000
vt 0.040541 0.000000
vt 0.054054 1.000000
vt 0.054054 0.000000
vt 0.067568 1.000000
vt 0.067568 0.000000
vt 0.081081 1.000000
vt 0.081081 0.000000
vt 0.094595 1.000000
vt 0.094595 0.000000
vt 0.108108 1.000000
vt 0.108108 0.000000
vt 0.121622 1.000000
vt 0.121622 0.000000
vt 0.135135 1.000000
vt 0.135135 0.000000
vt 0.148649 1.000000
vt 0.148649 0.000000
vt 0.162162 1.000000
vt 0.162162 0.000000
vt 0.175676 1.000000
vt 0.175676 0.000000
vt 0.189189 1.000000
vt 0.189189 0.000000
vt 0.202703 1.000000
vt 0.202703 0.000000
vt 0.216216 1.000000
vt 0.216216 0.000000
vt 0.229730 1.000000
vt 0.229730 0.000000
vt 0.243243 1.000000
vt 0.243243 0.000000
vt 0.256757 1.000000
vt 0.256757 0.000000
vt 0.270270 1.000000
vt 0.270270 0.000000
vt 0.283784 1.000000
vt 0.283784 0.000000
vt 0.297297 1.000000
vt 0.297297 0.000000
vt 0.310811 1.000000
vt 0.310811 0.000000
vt 0.324324 1.000000
vt 0.324324 0.000000
vt 0.337838 1.000000
vt 0.337838 0.000000
vt 0.351351 1.000000
vt 0.351351 0.000000
vt 0.364865 1.000000
vt 0.364865 0.000000
vt 0.378378 1.000000
vt 0.378378 0.000000
vt 0.391892 1.000000
vt 0.391892 0.000000
vt 0.405405 1.000000
vt 0.405405 0.000000
vt 0.418919 1.000000
vt 0.418919 0.000000
vt 0.432432 1.000000
vt 0.432432 0.000000
vt 0.445946 1.000000
vt 0.445946 0.000000
vt 0.459459 1.000000
vt 0.459459 0.000000
vt 0.472973 1.000000
vt 0.472973 0.000000
vt 0.486486 1.000000
vt 0.486486 0.000000
vt 0.513514 1.000000
vt 0.513514 0.000000
vt 0.527027 1.000000
vt 0.527027 0.000000
vt 0.540541 1.000000
vt 0.540541 0.000000
vt 0.554054 1.000000
vt 0.554054 0.000000
vt 0.567568 1.000000
vt 0.567568 0.000000
vt 0.581081 1.000000
vt 0.581081 0.000000
vt 0.594595 1.000000
vt 0.594595 0.000000
vt 0.608108 1.000000
vt 0.608108 0.000000
vt 0.621622 1.000000
vt 0.621622 0.000000
vt 0.635135 1.000000
vt 0.635135 0.000000
vt 0.648649 1.000000
vt 0.648649 0.000000
vt 0.662162 1.000000
vt 0.662162 0.000000
vt 0.675676 1.000000
vt 0.675676 0.000000
vt 0.689189 1.000000
vt 0.689189 0.000000
vt 0.702703 1.000000
vt 0.702703 0.000000
vt 0.716216 1.000000
vt 0.716216 0.000000
vt 0.729730 1.000000
vt 0.729730 0.000000
vt 0.743243 1.000000
vt 0.743243 0.000000
vt 0.756757 1.000000
vt 0.756757 0.000000
vt 0.770270 1.000000
vt 0.770270 0.000000
vt 0.783784 1.000000
vt 0.783784 0.000000
vt 0.797297 1.000000
vt 0.797297 0.000000
vt 0.810811 1.000000
vt 0.810811 0.000000
vt 0.824324 1.000000
vt 0.824324 0.000000
vt 0.837838 1.000000
vt 0.837838 0.000000
vt 0.851351 1.000000
vt 0.851351 0.000000
vt 0.864865 1.000000
vt 0.864865 0.000000
vt 0.878378 1.000000
vt 0.878378 0.000000
vt 0.891892 1.000000
vt 0.891892 0.000000
vt 0.905405 1.000000
vt 0.905405 0.000000
vt 0.918919 1.000000
vt 0.918919 0.000000
vt 0.932432 1.000000
vt 0.932432 0.000000
vt 0.945946 1.000000
vt 0.945946 0.000000
vt 0.959459 1.000000
vt 0.959459 0.000000
vt 0.972973 1.000000
vt 0.972973 0.000000
vt 0.986486 1.000000
vt 0.986486 0.000000
vt 0.040000 1.000000
vt 0.040000 0.000000
vt 0.080000 1.000000
vt 0.080000 0.000000
vt 0.120000 1.000000
vt 0.120000 0.000000
vt 0.160000 1.000000
vt 0.160000 0.000000
vt 0.240000 1.000000
vt 0.240000 0.000000
vt 0.280000 1.000000
vt 0.280000 0.000000
vt 0.320000 1.000000
vt 0.320000 0.000000
vt 0.360000 1.000000
vt 0.360000 0.000000
vt 0.440000 1.000000
vt 0.440000 0.000000
vt 0.480000 1.000000
vt 0.480000 0.000000
vt 0.520000 1.000000
vt 0.520000 0.000000
vt 0.560000 1.000000
vt 0.560000 0.000000
vt 0.640000 1.000000
vt 0.640000 0.000000
vt 0.680000 1.000000
vt 0.680000 0.000000
vt 0.720000 1.000000
vt 0.720000 0.000000
vt 0.760000 1.000000
vt 0.760000 0.000000
vt 0.840000 1.000000
vt 0.840000 0.000000
vt 0.880000 1.000000
vt 0.880000 0.000000
vt 0.920000 1.000000
vt 0.920000 0.000000
vt 0.960000 1.000000
vt 0.960000 0.000000
vt 0.083333 1.000000
vt 0.083333 0.000000
vt 0.166667 1.000000
vt 0.250000 1.000000
vt 0.250000 0.000000
vt 0.333333 1.000000
vt 0.416667 1.000000
vt 0.416667 0.000000
vt 0.583333 1.000000
vt 0.583333 0.000000
vt 0.666667 1.000000
vt 0.750000 1.000000
vt 0.750000 0.000000
vt 0.833333 1.000000
vt 0.916667 1.000000
vt 0.916667 0.000000
vt 0.017241 1.000000
vt 0.017241 0.000000
vt 0.034483 1.000000
vt 0.034483 0.000000
vt 0.051724 1.000000
vt 0.051724 0.000000
vt 0.068966 1.000000
vt 0.068966 0.000000
vt 0.086207 1.000000
vt 0.086207 0.000000
vt 0.103448 1.000000
vt 0.103448 0.000000
vt 0.120690 1.000000
vt 0.120690 0.000000
vt 0.137931 1.000000
vt 0.137931 0.000000
vt 0.155172 1.000000
vt 0.155172 0.000000
vt 0.172414 1.000000
vt 0.172414 0.000000
vt 0.189655 1.000000
vt 0.189655 0.000000
vt 0.206897 1.000000
vt 0.206897 0.000000
vt 0.224138 1.000000
vt 0.224138 0.000000
vt 0.241379 1.000000
vt 0.241379 0.000000
vt 0.258621 1.000000
vt 0.258621 0.000000
vt 0.275862 1.000000
vt 0.275862 0.000000
vt 0.293103 1.000000
vt 0.293103 0.000000
vt 0.310345 1.000000
vt 0.310345 0.000000
vt 0.327586 1.000000
vt 0.327586 0.000000
vt 0.344828 1.000000
vt 0.344828 0.000000
vt 0.362069 1.000000
vt 0.362069 0.000000
vt 0.379310 1.000000
vt 0.379310 0.000000
vt 0.396552 1.000000
vt 0.396552 0.000000
vt 0.413793 1.000000
vt 0.413793 0.000000
vt 0.431034 1.000000
vt 0.431034 0.000000
vt 0.448276 1.000000
vt 0.448276 0.000000
vt 0.465517 1.000000
vt 0.465517 0.000000
vt 0.482759 1.000000
vt 0.482759 0.000000
vt 0.517241 1.000000
vt 0.517241 0.000000
vt 0.534483 1.000000
vt 0.534483 0.000000
vt 0.551724 1.000000
vt 0.551724 0.000000
vt 0.568965 1.000000
vt 0.568965 0.000000
vt 0.586207 1.000000
vt 0.586207 0.000000
vt 0.603448 1.000000
vt 0.603448 0.000000
vt 0.620690 1.000000
vt 0.620690 0.000000
vt 0.637931 1.000000
vt 0.637931 0.000000
vt 0.655172 1.000000
vt 0.655172 0.000000
vt 0.672414 1.000000
vt 0.672414 0.000000
vt 0.689655 1.000000
vt 0.689655 0.000000
vt 0.706897 1.000000
vt 0.706897 0.000000
vt 0.724138 1.000000
vt 0.724138 0.000000
vt 0.741379 1.000000
vt 0.741379 0.000000
vt 0.758621 1.000000
vt 0.758621 0.000000
vt 0.775862 1.000000
vt 0.775862 0.000000
vt 0.793103 1.000000
vt 0.793103 0.000000
vt 0.810345 1.000000
vt 0.810345 0.000000
vt 0.827586 1.000000
vt 0.827586 0.000000
vt 0.844828 1.000000
vt 0.844828 0.000000
vt 0.862069 1.000000
vt 0.862069 0.000000
vt 0.879310 1.000000
vt 0.879310 0.000000
vt 0.896552 1.000000
vt 0.896552 0.000000
vt 0.913793 1.000000
vt 0.913793 0.000000
vt 0.931035 1.000000
vt 0.931035 0.000000
vt 0.948276 1.000000
vt 0.948276 0.000000
vt 0.965517 1.000000
vt 0.965517 0.000000
vt 0.982759 1.000000
vt 0.982759 0.000000
vt 0.142857 1.000000
vt 0.285714 1.000000
vt 0.428571 1.000000
vt 0.571429 1.000000
vt 0.714286 1.000000
vt 0.857143 1.000000
s 0
f 6/1/1 1/2/1 7/3/1
f 4/4/1 6/1/1 5/5/1
f 4/4/1 1/2/1 6/1/1
f 4/4/1 3/6/1 1/2/1
f 3/6/1 2/7/1 1/2/1
f 63/8/1 65/3/1 64/9/1
f 63/8/1 8/2/1 65/3/1
f 63/8/1 9/10/1 8/2/1
f 62/11/1 9/10/1 63/8/1
f 61/12/1 9/10/1 62/11/1
f 60/13/1 10/14/1 61/12/1
f 10/14/1 9/10/1 61/12/1
f 60/13/1 11/15/1 10/14/1
f 60/13/1 12/16/1 11/15/1
f 59/17/1 12/16/1 60/13/1
f 59/17/1 13/18/1 12/16/1
f 59/17/1 14/19/1 13/18/1
f 58/20/1 14/19/1 59/17/1
f 58/20/1 15/21/1 14/19/1
f 34/22/1 36/23/1 35/24/1
f 33/25/1 36/23/1 34/22/1
f 58/20/1 16/26/1 15/21/1
f 32/27/1 36/23/1 33/25/1
f 57/28/1 16/26/1 58/20/1
f 57/28/1 17/29/1 16/26/1
f 31/30/1 36/23/1 32/27/1
f 30/31/1 36/23/1 31/30/1
f 57/28/1 18/32/1 17/29/1
f 29/33/1 36/23/1 30/31/1
f 57/28/1 19/34/1 18/32/1
f 28/35/1 36/23/1 29/33/1
f 57/28/1 20/36/1 19/34/1
f 27/6/1 36/23/1 28/35/1
f 56/37/1 20/36/1 57/28/1
f 26/38/1 36/23/1 27/6/1
f 56/37/1 21/39/1 20/36/1
f 25/40/1 36/23/1 26/38/1
f 56/37/1 22/41/1 21/39/1
f 24/42/1 36/23/1 25/40/1
f 56/37/1 23/43/1 22/41/1
f 23/43/1 36/23/1 24/42/1
f 56/37/1 36/23/1 23/43/1
f 55/44/1 36/23/1 56/37/1
f 54/45/1 36/23/1 55/44/1
f 53/46/1 36/23/1 54/45/1
f 53/46/1 37/47/1 36/23/1
f 52/48/1 37/47/1 53/46/1
f 52/48/1 38/49/1 37/47/1
f 52/48/1 39/50/1 38/49/1
f 51/51/1 39/50/1 52/48/1
f 51/51/1 40/52/1 39/50/1
f 51/51/1 41/53/1 40/52/1
f 51/51/1 42/54/1 41/53/1
f 50/55/1 42/54/1 51/51/1
f 50/55/1 43/56/1 42/54/1
f 50/55/1 44/57/1 43/56/1
f 49/58/1 44/57/1 50/55/1
f 49/58/1 45/59/1 44/57/1
f 49/58/1 46/5/1 45/59/1
f 48/60/1 46/5/1 49/58/1
f 48/60/1 47/61/1 46/5/1
f 71/62/1 73/63/1 72/64/1
f 71/62/1 74/65/1 73/63/1
f 74/65/1 76/66/1 75/67/1
f 74/65/1 77/3/1 76/66/1
f 71/62/1 77/3/1 74/65/1
f 70/68/1 77/3/1 71/62/1
f 70/68/1 68/69/1 77/3/1
f 68/69/1 66/2/1 77/3/1
f 70/68/1 69/70/1 68/69/1
f 67/71/1 66/2/1 68/69/1
f 112/72/1 114/73/1 113/74/1
f 112/72/1 115/75/1 114/73/1
f 111/76/1 115/75/1 112/72/1
f 111/76/1 116/77/1 115/75/1
f 110/78/1 116/77/1 111/76/1
f 110/78/1 117/79/1 116/77/1
f 109/80/1 117/79/1 110/78/1
f 109/80/1 118/81/1 117/79/1
f 108/82/1 118/81/1 109/80/1
f 108/82/1 119/83/1 118/81/1
f 107/84/1 119/83/1 108/82/1
f 107/84/1 120/85/1 119/83/1
f 106/86/1 163/87/1 107/84/1
f 163/87/1 120/85/1 107/84/1
f 106/86/1 164/88/1 163/87/1
f 162/89/1 120/85/1 163/87/1
f 106/86/1 165/90/1 164/88/1
f 161/91/1 120/85/1 162/89/1
f 106/86/1 166/92/1 165/90/1
f 160/93/1 120/85/1 161/91/1
f 160/93/1 121/94/1 120/85/1
f 106/86/1 167/95/1 166/92/1
f 105/96/1 167/95/1 106/86/1
f 159/97/1 121/94/1 160/93/1
f 105/96/1 168/98/1 167/95/1
f 158/99/1 121/94/1 159/97/1
f 105/96/1 169/100/1 168/98/1
f 157/101/1 121/94/1 158/99/1
f 105/96/1 170/102/1 169/100/1
f 156/103/1 121/94/1 157/101/1
f 104/104/1 170/102/1 105/96/1
f 156/103/1 122/105/1 121/94/1
f 104/104/1 171/106/1 170/102/1
f 155/107/1 122/105/1 156/103/1
f 104/104/1 172/108/1 171/106/1
f 154/109/1 122/105/1 155/107/1
f 103/110/1 172/108/1 104/104/1
f 154/109/1 123/111/1 122/105/1
f 103/110/1 173/112/1 172/108/1
f 153/113/1 123/111/1 154/109/1
f 103/110/1 174/114/1 173/112/1
f 152/115/1 123/111/1 153/113/1
f 102/116/1 174/114/1 103/110/1
f 102/116/1 175/117/1 174/114/1
f 152/115/1 124/118/1 123/111/1
f 176/3/1 124/118/1 152/115/1
f 102/116/1 176/3/1 175/117/1
f 102/116/1 124/118/1 176/3/1
f 101/119/1 124/118/1 102/116/1
f 101/119/1 125/120/1 124/118/1
f 100/121/1 126/122/1 101/119/1
f 126/122/1 125/120/1 101/119/1
f 100/121/1 127/4/1 126/122/1
f 99/123/1 127/4/1 100/121/1
f 99/123/1 128/124/1 127/4/1
f 99/123/1 129/125/1 128/124/1
f 98/126/1 129/125/1 99/123/1
f 98/126/1 130/127/1 129/125/1
f 97/128/1 130/127/1 98/126/1
f 97/128/1 131/129/1 130/127/1
f 149/130/1 151/131/1 150/132/1
f 97/128/1 132/133/1 131/129/1
f 148/134/1 151/131/1 149/130/1
f 147/135/1 151/131/1 148/134/1
f 96/136/1 132/133/1 97/128/1
f 96/136/1 133/137/1 132/133/1
f 146/138/1 151/131/1 147/135/1
f 145/139/1 151/131/1 146/138/1
f 96/136/1 134/140/1 133/137/1
f 144/141/1 151/131/1 145/139/1
f 96/136/1 135/142/1 134/140/1
f 143/143/1 151/131/1 144/141/1
f 95/144/1 135/142/1 96/136/1
f 142/145/1 151/131/1 143/143/1
f 95/144/1 136/146/1 135/142/1
f 141/147/1 151/131/1 142/145/1
f 95/144/1 137/148/1 136/146/1
f 140/149/1 151/131/1 141/147/1
f 139/150/1 151/131/1 140/149/1
f 95/144/1 138/151/1 137/148/1
f 138/151/1 151/131/1 139/150/1
f 95/144/1 151/131/1 138/151/1
f 94/152/1 151/131/1 95/144/1
f 94/152/1 78/2/1 151/131/1
f 93/153/1 78/2/1 94/152/1
f 93/153/1 79/154/1 78/2/1
f 93/153/1 80/155/1 79/154/1
f 92/156/1 80/155/1 93/153/1
f 92/156/1 81/157/1 80/155/1
f 92/156/1 82/158/1 81/157/1
f 91/159/1 82/158/1 92/156/1
f 91/159/1 83/160/1 82/158/1
f 91/159/1 84/161/1 83/160/1
f 90/162/1 84/161/1 91/159/1
f 90/162/1 85/163/1 84/161/1
f 90/162/1 86/164/1 85/163/1
f 90/162/1 87/165/1 86/164/1
f 89/166/1 87/165/1 90/162/1
f 89/166/1 88/167/1 87/165/1
f 180/6/1 182/168/1 181/169/1
f 180/6/1 178/170/1 182/168/1
f 178/170/1 183/5/1 182/168/1
f 183/5/1 185/171/1 184/172/1
f 183/5/1 186/3/1 185/171/1
f 180/6/1 179/173/1 178/170/1
f 177/2/1 183/5/1 178/170/1
f 177/2/1 186/3/1 183/5/1
f 192/1/2 193/3/2 187/2/2
f 190/4/2 191/5/2 192/1/2
f 190/4/2 192/1/2 187/2/2
f 190/4/2 187/2/2 189/6/2
f 189/6/2 187/2/2 188/7/2
f 249/8/2 250/9/2 251/3/2
f 249/8/2 251/3/2 194/2/2
f 249/8/2 194/2/2 195/10/2
f 248/11/2 249/8/2 195/10/2
f 247/12/1 248/11/1 195/10/1
f 246/13/2 247/12/2 196/14/2
f 196/14/1 247/12/1 195/10/1
f 246/13/2 196/14/2 197/15/2
f 246/13/2 197/15/2 198/16/2
f 245/17/2 246/13/2 198/16/2
f 245/17/2 198/16/2 199/18/2
f 245/17/2 199/18/2 200/19/2
f 244/20/2 245/17/2 200/19/2
f 244/20/2 200/19/2 201/21/2
f 220/22/2 221/24/2 222/23/2
f 219/25/2 220/22/2 222/23/2
f 244/20/2 201/21/2 202/26/2
f 218/27/2 219/25/2 222/23/2
f 243/28/2 244/20/2 202/26/2
f 243/28/2 202/26/2 203/29/2
f 217/30/2 218/27/2 222/23/2
f 216/31/2 217/30/2 222/23/2
f 243/28/2 203/29/2 204/32/2
f 215/33/2 216/31/2 222/23/2
f 243/28/2 204/32/2 205/34/2
f 214/35/2 215/33/2 222/23/2
f 243/28/2 205/34/2 206/36/2
f 213/6/2 214/35/2 222/23/2
f 242/37/2 243/28/2 206/36/2
f 212/38/2 213/6/2 222/23/2
f 242/37/2 206/36/2 207/39/2
f 211/40/2 212/38/2 222/23/2
f 242/37/2 207/39/2 208/41/2
f 210/42/2 211/40/2 222/23/2
f 242/37/2 208/41/2 209/43/2
f 209/43/2 210/42/2 222/23/2
f 242/37/2 209/43/2 222/23/2
f 241/44/2 242/37/2 222/23/2
f 240/45/2 241/44/2 222/23/2
f 239/46/2 240/45/2 222/23/2
f 239/46/2 222/23/2 223/47/2
f 238/48/2 239/46/2 223/47/2
f 238/48/2 223/47/2 224/49/2
f 238/48/2 224/49/2 225/50/2
f 237/51/2 238/48/2 225/50/2
f 237/51/2 225/50/2 226/52/2
f 237/51/2 226/52/2 227/53/2
f 237/51/2 227/53/2 228/54/2
f 236/55/2 237/51/2 228/54/2
f 236/55/2 228/54/2 229/56/2
f 236/55/2 229/56/2 230/57/2
f 235/58/2 236/55/2 230/57/2
f 235/58/2 230/57/2 231/59/2
f 235/58/2 231/59/2 232/5/2
f 234/60/2 235/58/2 232/5/2
f 234/60/2 232/5/2 233/61/2
f 257/62/2 258/64/2 259/63/2
f 257/62/2 259/63/2 260/65/2
f 260/65/2 261/67/2 262/66/2
f 260/65/2 262/66/2 263/3/2
f 257/62/2 260/65/2 263/3/2
f 256/68/2 257/62/2 263/3/2
f 256/68/2 263/3/2 254/69/2
f 254/69/2 263/3/2 252/2/2
f 256/68/2 254/69/2 255/70/2
f 253/71/2 254/69/2 252/2/2
f 298/72/2 299/74/2 300/73/2
f 298/72/2 300/73/2 301/75/2
f 297/76/2 298/72/2 301/75/2
f 297/76/2 301/75/2 302/77/2
f 296/78/2 297/76/2 302/77/2
f 296/78/2 302/77/2 303/79/2
f 295/80/2 296/78/2 303/79/2
f 295/80/2 303/79/2 304/81/2
f 294/82/2 295/80/2 304/81/2
f 294/82/2 304/81/2 305/83/2
f 293/84/2 294/82/2 305/83/2
f 293/84/2 305/83/2 306/85/2
f 292/86/2 293/84/2 349/87/2
f 349/87/2 293/84/2 306/85/2
f 292/86/2 349/87/2 350/88/2
f 348/89/2 349/87/2 306/85/2
f 292/86/2 350/88/2 351/90/2
f 347/91/2 348/89/2 306/85/2
f 292/86/2 351/90/2 352/92/2
f 346/93/2 347/91/2 306/85/2
f 346/93/2 306/85/2 307/94/2
f 292/86/2 352/92/2 353/95/2
f 291/96/2 292/86/2 353/95/2
f 345/97/2 346/93/2 307/94/2
f 291/96/2 353/95/2 354/98/2
f 344/99/2 345/97/2 307/94/2
f 291/96/2 354/98/2 355/100/2
f 343/101/2 344/99/2 307/94/2
f 291/96/2 355/100/2 356/102/2
f 342/103/2 343/101/2 307/94/2
f 290/104/2 291/96/2 356/102/2
f 342/103/2 307/94/2 308/105/2
f 290/104/2 356/102/2 357/106/2
f 341/107/2 342/103/2 308/105/2
f 290/104/2 357/106/2 358/108/2
f 340/109/2 341/107/2 308/105/2
f 289/110/2 290/104/2 358/108/2
f 340/109/2 308/105/2 309/111/2
f 289/110/2 358/108/2 359/112/2
f 339/113/2 340/109/2 309/111/2
f 289/110/2 359/112/2 360/114/2
f 338/115/2 339/113/2 309/111/2
f 288/116/2 289/110/2 360/114/2
f 288/116/2 360/114/2 361/117/2
f 338/115/2 309/111/2 310/118/2
f 362/3/2 338/115/2 310/118/2
f 288/116/2 361/117/2 362/3/2
f 288/116/2 362/3/2 310/118/2
f 287/119/2 288/116/2 310/118/2
f 287/119/2 310/118/2 311/120/2
f 286/121/2 287/119/2 312/122/2
f 312/122/2 287/119/2 311/120/2
f 286/121/2 312/122/2 313/4/2
f 285/123/2 286/121/2 313/4/2
f 285/123/2 313/4/2 314/124/2
f 285/123/2 314/124/2 315/125/2
f 284/126/2 285/123/2 315/125/2
f 284/126/2 315/125/2 316/127/2
f 283/128/2 284/126/2 316/127/2
f 283/128/2 316/127/2 317/129/2
f 335/130/2 336/132/2 337/131/2
f 283/128/2 317/129/2 318/133/2
f 334/134/2 335/130/2 337/131/2
f 333/135/2 334/134/2 337/131/2
f 282/136/2 283/128/2 318/133/2
f 282/136/2 318/133/2 319/137/2
f 332/138/2 333/135/2 337/131/2
f 331/139/2 332/138/2 337/131/2
f 282/136/2 319/137/2 320/140/2
f 330/141/2 331/139/2 337/131/2
f 282/136/2 320/140/2 321/142/2
f 329/143/2 330/141/2 337/131/2
f 281/144/2 282/136/2 321/142/2
f 328/145/2 329/143/2 337/131/2
f 281/144/2 321/142/2 322/146/2
f 327/147/2 328/145/2 337/131/2
f 281/144/2 322/146/2 323/148/2
f 326/149/2 327/147/2 337/131/2
f 325/150/2 326/149/2 337/131/2
f 281/144/2 323/148/2 324/151/2
f 324/151/2 325/150/2 337/131/2
f 281/144/2 324/151/2 337/131/2
f 280/152/2 281/144/2 337/131/2
f 280/152/2 337/131/2 264/2/2
f 279/153/2 280/152/2 264/2/2
f 279/153/2 264/2/2 265/154/2
f 279/153/2 265/154/2 266/155/2
f 278/156/2 279/153/2 266/155/2
f 278/156/2 266/155/2 267/157/2
f 278/156/2 267/157/2 268/158/2
f 277/159/2 278/156/2 268/158/2
f 277/159/2 268/158/2 269/160/2
f 277/159/2 269/160/2 270/161/2
f 276/162/2 277/159/2 270/161/2
f 276/162/2 270/161/2 271/163/2
f 276/162/2 271/163/2 272/164/2
f 276/162/2 272/164/2 273/165/2
f 275/166/2 276/162/2 273/165/2
f 275/166/2 273/165/2 274/167/2
f 366/6/2 367/169/2 368/168/2
f 366/6/2 368/168/2 364/170/2
f 364/170/2 368/168/2 369/5/2
f 369/5/2 370/172/2 371/171/2
f 369/5/2 371/171/2 372/3/2
f 366/6/2 364/170/2 365/173/2
f 363/2/2 364/170/2 369/5/2
f 363/2/2 369/5/2 372/3/2
s 1
f 374/174/3 376/175/4 375/176/4 373/2/3
f 376/175/4 378/177/5 377/178/5 375/176/4
f 378/177/5 380/179/6 379/180/6 377/178/5
f 380/179/6 382/181/7 381/182/7 379/180/6
f 382/181/7 384/183/8 383/4/8 381/182/7
f 384/183/8 386/184/9 385/185/9 383/4/8
f 386/184/9 388/186/7 387/187/7 385/185/9
f 388/186/7 390/188/10 389/189/10 387/187/7
f 390/188/10 392/190/5 391/191/5 389/189/10
f 392/190/5 374/192/3 373/3/3 391/191/5
f 394/174/11 396/193/12 395/194/12 393/2/11
f 396/193/12 398/195/13 397/196/13 395/194/12
f 398/195/13 400/197/14 399/198/14 397/196/13
f 400/197/14 402/199/15 401/200/15 399/198/14
f 402/199/15 404/201/16 403/202/16 401/200/15
f 404/201/16 406/203/17 405/204/17 403/202/16
f 406/203/17 408/205/18 407/206/18 405/204/17
f 408/205/18 410/207/19 409/208/19 407/206/18
f 410/207/19 412/209/20 411/210/20 409/208/19
f 412/209/20 414/211/21 413/212/21 411/210/20
f 414/211/21 416/213/22 415/214/22 413/212/21
f 416/213/22 418/215/23 417/216/23 415/214/22
f 418/215/23 420/217/24 419/218/24 417/216/23
f 420/217/24 422/219/25 421/220/25 419/218/24
f 422/219/25 424/221/26 423/222/26 421/220/25
f 424/221/26 426/223/27 425/224/27 423/222/26
f 426/223/27 428/225/28 427/226/28 425/224/27
f 428/225/28 430/227/29 429/228/29 427/226/28
f 430/227/29 432/229/30 431/230/30 429/228/29
f 432/229/30 434/231/31 433/232/31 431/230/30
f 434/231/31 436/233/32 435/234/32 433/232/31
f 436/233/32 438/235/33 437/236/33 435/234/32
f 438/235/33 440/237/34 439/238/34 437/236/33
f 440/237/34 442/239/35 441/240/35 439/238/34
f 442/239/35 444/241/36 443/242/36 441/240/35
f 444/241/36 446/243/37 445/244/37 443/242/36
f 446/243/37 448/245/38 447/246/38 445/244/37
f 448/245/38 450/247/39 449/248/39 447/246/38
f 450/247/39 452/249/40 451/250/40 449/248/39
f 452/249/40 454/251/41 453/252/41 451/250/40
f 454/251/41 456/253/42 455/254/42 453/252/41
f 456/253/42 458/255/43 457/256/43 455/254/42
f 458/255/43 460/257/44 459/258/44 457/256/43
f 460/257/44 462/259/45 461/260/45 459/258/44
f 462/259/45 464/261/46 463/262/46 461/260/45
f 464/261/46 466/263/47 465/264/47 463/262/46
f 466/263/47 468/183/48 467/4/48 465/264/47
f 468/183/48 470/265/49 469/266/49 467/4/48
f 470/265/49 472/267/50 471/268/50 469/266/49
f 472/267/50 474/269/51 473/270/51 471/268/50
f 474/269/51 476/271/52 475/272/52 473/270/51
f 476/271/52 478/273/53 477/274/53 475/272/52
f 478/273/53 480/275/54 479/276/54 477/274/53
f 480/275/54 482/277/55 481/278/55 479/276/54
f 482/277/55 484/279/56 483/280/56 481/278/55
f 484/279/56 486/281/57 485/282/57 483/280/56
f 486/281/57 488/283/58 487/284/58 485/282/57
f 488/283/58 490/285/59 489/286/59 487/284/58
f 490/285/59 492/287/60 491/288/60 489/286/59
f 492/287/60 494/289/61 493/290/61 491/288/60
f 494/289/61 496/291/62 495/292/62 493/290/61
f 496/291/62 498/293/63 497/294/63 495/292/62
f 498/293/63 500/295/64 499/296/64 497/294/63
f 500/295/64 502/297/65 501/298/65 499/296/64
f 502/297/65 504/299/66 503/300/66 501/298/65
f 504/299/66 506/301/67 505/302/67 503/300/66
f 506/301/67 508/303/68 507/304/68 505/302/67
f 508/303/68 510/305/69 509/306/69 507/304/68
f 510/305/69 512/307/70 511/308/70 509/306/69
f 512/307/70 514/309/71 513/310/71 511/308/70
f 514/309/71 516/311/72 515/312/72 513/310/71
f 516/311/72 518/313/73 517/314/73 515/312/72
f 518/313/73 520/315/74 519/316/74 517/314/73
f 520/315/74 522/317/75 521/318/75 519/316/74
f 522/317/75 524/319/76 523/320/76 521/318/75
f 524/319/76 526/321/77 525/322/77 523/320/76
f 526/321/77 528/323/78 527/324/78 525/322/77
f 528/323/78 530/325/79 529/326/79 527/324/78
f 530/325/79 532/327/80 531/328/80 529/326/79
f 532/327/80 534/329/81 533/330/81 531/328/80
f 534/329/81 536/331/82 535/332/82 533/330/81
f 536/331/82 538/333/83 537/334/83 535/332/82
f 538/333/83 540/335/84 539/336/84 537/334/83
f 540/335/84 394/192/11 393/3/11 539/336/84
f 542/174/85 544/337/86 543/338/86 541/2/85
f 544/337/86 546/339/87 545/340/87 543/338/86
f 546/339/87 548/341/88 547/342/88 545/340/87
f 548/341/88 550/343/89 549/344/89 547/342/88
f 550/343/89 552/177/90 551/178/90 549/344/89
f 552/177/90 554/345/91 553/346/91 551/178/90
f 554/345/91 556/347/92 555/348/92 553/346/91
f 556/347/92 558/349/93 557/350/93 555/348/92
f 558/349/93 560/351/94 559/352/94 557/350/93
f 560/351/94 562/181/95 561/182/95 559/352/94
f 562/181/95 564/353/96 563/354/96 561/182/95
f 564/353/96 566/355/97 565/356/97 563/354/96
f 566/355/97 568/357/98 567/358/98 565/356/97
f 568/357/98 570/359/99 569/360/99 567/358/98
f 570/359/99 572/184/100 571/185/100 569/360/99
f 572/184/100 574/361/101 573/362/101 571/185/100
f 574/361/101 576/363/102 575/364/102 573/362/101
f 576/363/102 578/365/103 577/366/103 575/364/102
f 578/365/103 580/367/104 579/368/104 577/366/103
f 580/367/104 582/188/105 581/189/105 579/368/104
f 582/188/105 584/369/106 583/370/106 581/189/105
f 584/369/106 586/371/107 585/372/107 583/370/106
f 586/371/107 588/373/108 587/374/108 585/372/107
f 588/373/108 590/375/109 589/376/109 587/374/108
f 590/375/109 542/192/85 541/3/85 589/376/109
f 592/174/110 594/377/111 593/378/111 591/2/110
f 594/377/111 596/379/112 595/7/112 593/378/111
f 596/379/112 598/380/113 597/381/113 595/7/112
f 598/380/113 600/382/114 599/6/114 597/381/113
f 600/382/114 602/383/115 601/384/115 599/6/114
f 602/383/115 604/183/116 603/4/116 601/384/115
f 604/183/116 606/385/117 605/386/117 603/4/116
f 606/385/117 608/387/118 607/5/118 605/386/117
f 608/387/118 610/388/119 609/389/119 607/5/118
f 610/388/119 612/390/120 611/1/120 609/389/119
f 612/390/120 614/391/121 613/392/121 611/1/120
f 614/391/121 592/192/110 591/3/110 613/392/121
f 616/174/10 618/393/5 617/394/5 615/2/10
f 618/393/5 620/395/5 619/396/5 617/394/5
f 620/395/5 622/397/122 621/398/122 619/396/5
f 622/397/122 624/399/123 623/400/123 621/398/122
f 624/399/123 626/401/124 625/402/124 623/400/123
f 626/401/124 628/403/125 627/404/125 625/402/124
f 628/403/125 630/405/126 629/406/126 627/404/125
f 630/405/126 632/407/127 631/408/127 629/406/126
f 632/407/127 634/409/128 633/410/128 631/408/127
f 634/409/128 636/411/129 635/412/129 633/410/128
f 636/411/129 638/413/130 637/414/130 635/412/129
f 638/413/130 640/415/131 639/416/131 637/414/130
f 640/415/131 642/417/132 641/418/132 639/416/131
f 642/417/132 644/419/133 643/420/133 641/418/132
f 644/419/133 646/421/134 645/422/134 643/420/133
f 646/421/134 648/423/135 647/424/135 645/422/134
f 648/423/135 650/425/136 649/426/136 647/424/135
f 650/425/136 652/427/137 651/428/137 649/426/136
f 652/427/137 654/429/138 653/430/138 651/428/137
f 654/429/138 656/431/139 655/432/139 653/430/138
f 656/431/139 658/433/140 657/434/140 655/432/139
f 658/433/140 660/435/141 659/436/141 657/434/140
f 660/435/141 662/437/142 661/438/142 659/436/141
f 662/437/142 664/439/143 663/440/143 661/438/142
f 664/439/143 666/441/144 665/442/144 663/440/143
f 666/441/144 668/443/145 667/444/145 665/442/144
f 668/443/145 670/445/146 669/446/146 667/444/145
f 670/445/146 672/447/147 671/448/147 669/446/146
f 672/447/147 674/183/148 673/4/148 671/448/147
f 674/183/148 676/449/149 675/450/149 673/4/148
f 676/449/149 678/451/150 677/452/150 675/450/149
f 678/451/150 680/453/151 679/454/151 677/452/150
f 680/453/151 682/455/152 681/456/152 679/454/151
f 682/455/152 684/457/153 683/458/153 681/456/152
f 684/457/153 686/459/154 685/460/154 683/458/153
f 686/459/154 688/461/155 687/462/155 685/460/154
f 688/461/155 690/463/156 689/464/156 687/462/155
f 690/463/156 692/465/157 691/466/157 689/464/156
f 692/465/157 694/467/158 693/468/158 691/466/157
f 694/467/158 696/469/159 695/470/159 693/468/158
f 696/469/159 698/471/160 697/472/160 695/470/159
f 698/471/160 700/473/161 699/474/161 697/472/160
f 700/473/161 702/475/162 701/476/162 699/474/161
f 702/475/162 704/477/163 703/478/163 701/476/162
f 704/477/163 706/479/164 705/480/164 703/478/163
f 706/479/164 708/481/165 707/482/165 705/480/164
f 708/481/165 710/483/166 709/484/166 707/482/165
f 710/483/166 712/485/167 711/486/167 709/484/166
f 712/485/167 714/487/168 713/488/168 711/486/167
f 714/487/168 716/489/169 715/490/169 713/488/168
f 716/489/169 718/491/170 717/492/170 715/490/169
f 718/491/170 720/493/171 719/494/171 717/492/170
f 720/493/171 722/495/6 721/496/6 719/494/171
f 722/495/6 724/497/6 723/498/6 721/496/6
f 724/497/6 726/499/172 725/500/172 723/498/6
f 726/499/172 728/501/173 727/502/173 725/500/172
f 728/501/173 730/503/10 729/504/10 727/502/173
f 730/503/10 616/192/10 615/3/10 729/504/10
f 732/174/174 734/505/175 733/156/175 731/2/174
f 734/505/175 736/506/6 735/86/6 733/156/175
f 736/506/6 738/507/6 737/85/6 735/86/6
f 738/507/6 740/508/7 739/140/7 737/85/6
f 740/508/7 742/509/7 741/134/7 739/140/7
f 742/509/7 744/510/176 743/89/176 741/134/7
f 744/510/176 732/192/174 731/3/174 743/89/176
